<svg id="svg" version="1.1" xmlns="http://www.w3.org/2000/svg" xmlns:xlink="http://www.w3.org/1999/xlink" width="400" height="123.6024844720497" viewBox="0, 0, 400,123.6024844720497"><g id="svgg"><path id="path0" d="M72.333 48.016 C 72.333 59.558,72.337 59.699,72.667 59.785 C 72.928 59.853,73.000 60.012,73.000 60.519 C 73.000 61.056,73.057 61.167,73.333 61.167 C 73.603 61.167,73.667 61.278,73.667 61.750 C 73.667 62.136,73.745 62.333,73.897 62.333 C 74.024 62.333,74.167 62.483,74.215 62.667 C 74.263 62.850,74.413 63.000,74.548 63.000 C 74.684 63.000,74.834 63.150,74.882 63.333 C 74.930 63.517,75.088 63.667,75.234 63.667 C 75.380 63.667,75.500 63.779,75.500 63.917 C 75.500 64.091,75.676 64.167,76.083 64.167 C 76.556 64.167,76.667 64.230,76.667 64.500 C 76.667 64.778,76.778 64.833,77.333 64.833 C 77.889 64.833,78.000 64.889,78.000 65.167 C 78.000 65.460,78.111 65.500,78.917 65.500 C 79.589 65.500,79.833 65.562,79.833 65.732 C 79.833 66.112,80.232 66.167,82.993 66.167 C 85.889 66.167,86.667 66.074,86.667 65.729 C 86.667 65.563,86.917 65.500,87.583 65.500 C 88.389 65.500,88.500 65.460,88.500 65.167 C 88.500 64.897,88.611 64.833,89.083 64.833 C 89.556 64.833,89.667 64.770,89.667 64.500 C 89.667 64.222,89.778 64.167,90.333 64.167 C 90.815 64.167,91.000 64.097,91.000 63.917 C 91.000 63.779,91.120 63.667,91.266 63.667 C 91.412 63.667,91.570 63.517,91.618 63.333 C 91.666 63.150,91.809 63.000,91.936 63.000 C 92.063 63.000,92.167 62.850,92.167 62.667 C 92.167 62.444,92.278 62.333,92.500 62.333 C 92.770 62.333,92.833 62.222,92.833 61.750 C 92.833 61.278,92.897 61.167,93.167 61.167 C 93.443 61.167,93.500 61.056,93.500 60.519 C 93.500 60.012,93.572 59.853,93.833 59.785 C 94.112 59.712,94.167 59.558,94.167 58.849 C 94.167 58.205,94.227 58.000,94.417 58.000 C 94.636 58.000,94.667 56.685,94.667 47.167 L 94.667 36.333 91.917 36.333 L 89.167 36.333 89.167 46.583 C 89.167 56.722,89.163 56.833,88.833 56.833 C 88.566 56.833,88.500 56.944,88.500 57.397 C 88.500 57.821,88.417 57.983,88.167 58.048 C 87.911 58.115,87.833 58.276,87.833 58.734 C 87.833 59.308,87.808 59.333,87.250 59.333 C 86.843 59.333,86.667 59.409,86.667 59.583 C 86.667 59.721,86.547 59.833,86.401 59.833 C 86.255 59.833,86.096 59.983,86.048 60.167 C 85.966 60.481,85.821 60.500,83.500 60.500 C 81.179 60.500,81.034 60.481,80.952 60.167 C 80.888 59.924,80.724 59.833,80.349 59.833 C 80.002 59.833,79.833 59.752,79.833 59.583 C 79.833 59.444,79.685 59.333,79.500 59.333 C 79.278 59.333,79.167 59.222,79.167 59.000 C 79.167 58.778,79.056 58.667,78.833 58.667 C 78.563 58.667,78.500 58.556,78.500 58.078 C 78.500 57.709,78.407 57.454,78.250 57.394 C 78.032 57.310,78.000 56.016,78.000 47.149 C 78.000 37.111,77.996 37.000,77.667 37.000 C 77.444 37.000,77.333 36.889,77.333 36.667 C 77.333 36.348,77.222 36.333,74.833 36.333 L 72.333 36.333 72.333 48.016 M101.000 36.667 C 101.000 36.889,100.889 37.000,100.667 37.000 C 100.342 37.000,100.333 37.111,100.333 41.333 C 100.333 45.556,100.342 45.667,100.667 45.667 C 100.995 45.667,101.000 45.778,101.000 52.500 C 101.000 59.248,100.996 59.333,100.663 59.333 C 100.335 59.333,100.327 59.418,100.371 62.375 L 100.417 65.417 103.125 65.462 L 105.833 65.508 105.846 56.296 C 105.854 51.229,105.897 47.177,105.944 47.292 C 105.990 47.406,106.125 47.500,106.244 47.500 C 106.364 47.500,106.500 47.650,106.548 47.833 C 106.596 48.017,106.755 48.167,106.901 48.167 C 107.093 48.167,107.167 48.327,107.167 48.750 C 107.167 49.222,107.230 49.333,107.500 49.333 C 107.770 49.333,107.833 49.444,107.833 49.917 C 107.833 50.324,107.909 50.500,108.083 50.500 C 108.222 50.500,108.333 50.648,108.333 50.833 C 108.333 51.056,108.444 51.167,108.667 51.167 C 108.934 51.167,109.000 51.278,109.000 51.731 C 109.000 52.154,109.083 52.316,109.333 52.382 C 109.517 52.430,109.667 52.580,109.667 52.715 C 109.667 52.850,109.817 53.000,110.000 53.048 C 110.244 53.112,110.333 53.276,110.333 53.656 C 110.333 53.966,110.435 54.216,110.583 54.273 C 110.721 54.326,110.833 54.468,110.833 54.590 C 110.833 54.711,110.983 54.858,111.167 54.917 C 111.415 54.995,111.500 55.169,111.500 55.595 C 111.500 56.056,111.565 56.167,111.833 56.167 C 112.056 56.167,112.167 56.278,112.167 56.500 C 112.167 56.685,112.278 56.833,112.417 56.833 C 112.585 56.833,112.667 57.002,112.667 57.349 C 112.667 57.724,112.757 57.888,113.000 57.952 C 113.184 58.000,113.333 58.179,113.333 58.353 C 113.333 58.556,113.451 58.667,113.667 58.667 C 113.937 58.667,114.000 58.778,114.000 59.250 C 114.000 59.722,114.063 59.833,114.333 59.833 C 114.604 59.833,114.667 59.944,114.667 60.422 C 114.667 60.791,114.760 61.046,114.917 61.106 C 115.054 61.159,115.167 61.307,115.167 61.434 C 115.167 61.562,115.317 61.667,115.500 61.667 C 115.771 61.667,115.833 61.778,115.833 62.266 C 115.833 62.724,115.911 62.885,116.167 62.952 C 116.350 63.000,116.500 63.171,116.500 63.333 C 116.500 63.495,116.650 63.667,116.833 63.715 C 117.076 63.778,117.167 63.942,117.167 64.318 C 117.167 64.665,117.248 64.833,117.417 64.833 C 117.556 64.833,117.667 64.982,117.667 65.170 C 117.667 65.498,117.751 65.506,120.708 65.462 L 123.750 65.417 123.793 50.875 L 123.835 36.333 121.084 36.333 L 118.333 36.333 118.333 45.401 C 118.333 54.387,118.330 54.468,118.000 54.382 C 117.816 54.333,117.667 54.154,117.667 53.981 C 117.667 53.778,117.549 53.667,117.333 53.667 C 117.063 53.667,117.000 53.556,117.000 53.083 C 117.000 52.676,116.925 52.500,116.750 52.500 C 116.611 52.500,116.500 52.352,116.500 52.167 C 116.500 51.944,116.389 51.833,116.167 51.833 C 115.897 51.833,115.833 51.722,115.833 51.250 C 115.833 50.778,115.770 50.667,115.500 50.667 C 115.278 50.667,115.167 50.556,115.167 50.333 C 115.167 50.148,115.056 50.000,114.917 50.000 C 114.761 50.000,114.667 49.843,114.667 49.583 C 114.667 49.354,114.517 49.017,114.333 48.833 C 114.150 48.650,114.000 48.425,114.000 48.333 C 114.000 48.242,113.850 48.167,113.667 48.167 C 113.389 48.167,113.333 48.056,113.333 47.500 C 113.333 46.944,113.278 46.833,113.000 46.833 C 112.730 46.833,112.667 46.722,112.667 46.250 C 112.667 45.843,112.591 45.667,112.417 45.667 C 112.279 45.667,112.167 45.547,112.167 45.401 C 112.167 45.255,112.017 45.096,111.833 45.048 C 111.583 44.983,111.500 44.821,111.500 44.397 C 111.500 43.944,111.434 43.833,111.167 43.833 C 110.944 43.833,110.833 43.722,110.833 43.500 C 110.833 43.278,110.722 43.167,110.500 43.167 C 110.232 43.167,110.167 43.056,110.167 42.601 C 110.167 42.252,110.071 41.999,109.917 41.940 C 109.779 41.887,109.667 41.729,109.667 41.589 C 109.667 41.444,109.522 41.333,109.333 41.333 C 109.062 41.333,109.000 41.222,109.000 40.734 C 109.000 40.276,108.922 40.115,108.667 40.048 C 108.483 40.000,108.333 39.855,108.333 39.725 C 108.333 39.596,108.221 39.446,108.083 39.394 C 107.946 39.341,107.833 39.162,107.833 38.996 C 107.833 38.516,107.650 38.167,107.399 38.167 C 107.271 38.167,107.167 38.017,107.167 37.833 C 107.167 37.611,107.056 37.500,106.833 37.500 C 106.563 37.500,106.500 37.389,106.500 36.917 L 106.500 36.333 103.750 36.333 C 101.111 36.333,101.000 36.347,101.000 36.667 M130.771 36.854 C 130.637 37.525,130.634 64.887,130.768 65.236 C 130.833 65.405,131.073 65.500,131.434 65.500 C 131.803 65.500,132.000 65.580,132.000 65.729 C 132.000 66.108,132.817 66.167,138.062 66.164 C 143.259 66.162,143.833 66.119,143.833 65.731 C 143.833 65.556,144.120 65.500,145.016 65.500 C 146.058 65.500,146.208 65.460,146.285 65.167 C 146.357 64.890,146.512 64.833,147.202 64.833 C 147.891 64.833,148.046 64.777,148.118 64.500 C 148.166 64.317,148.312 64.167,148.441 64.167 C 148.571 64.167,148.720 64.054,148.773 63.917 C 148.826 63.779,149.005 63.667,149.171 63.667 C 149.651 63.667,150.000 63.484,150.000 63.232 C 150.000 63.104,150.120 63.000,150.266 63.000 C 150.412 63.000,150.570 62.850,150.618 62.667 C 150.666 62.483,150.809 62.333,150.936 62.333 C 151.063 62.333,151.167 62.183,151.167 62.000 C 151.167 61.778,151.278 61.667,151.500 61.667 C 151.770 61.667,151.833 61.556,151.833 61.083 C 151.833 60.611,151.897 60.500,152.167 60.500 C 152.434 60.500,152.500 60.389,152.500 59.936 C 152.500 59.512,152.583 59.351,152.833 59.285 C 153.089 59.218,153.167 59.058,153.167 58.599 C 153.167 58.178,153.241 58.000,153.417 58.000 C 153.609 58.000,153.667 57.787,153.667 57.083 C 153.667 56.278,153.707 56.167,154.000 56.167 C 154.327 56.167,154.333 56.056,154.333 50.345 C 154.333 44.669,154.325 44.520,154.000 44.417 C 153.726 44.330,153.667 44.164,153.667 43.484 C 153.667 42.928,153.590 42.627,153.433 42.567 C 153.305 42.517,153.151 42.220,153.092 41.905 C 153.028 41.565,152.887 41.333,152.742 41.333 C 152.609 41.333,152.500 41.183,152.500 41.000 C 152.500 40.778,152.389 40.667,152.167 40.667 C 151.944 40.667,151.833 40.556,151.833 40.333 C 151.833 40.111,151.722 40.000,151.500 40.000 C 151.312 40.000,151.167 39.889,151.167 39.745 C 151.167 39.604,151.054 39.446,150.917 39.394 C 150.779 39.341,150.667 39.193,150.667 39.066 C 150.667 38.938,150.517 38.833,150.333 38.833 C 150.111 38.833,150.000 38.722,150.000 38.500 C 150.000 38.278,149.889 38.167,149.667 38.167 C 149.483 38.167,149.333 38.062,149.333 37.934 C 149.333 37.680,148.983 37.500,148.486 37.500 C 148.311 37.500,148.167 37.387,148.167 37.250 C 148.167 37.059,147.956 37.000,147.269 37.000 C 146.512 37.000,146.359 36.948,146.285 36.667 C 146.199 36.339,146.058 36.333,138.536 36.333 L 130.875 36.333 130.771 36.854 M159.333 36.667 C 159.333 36.889,159.222 37.000,159.000 37.000 C 158.675 37.000,158.667 37.111,158.667 41.583 C 158.667 46.056,158.675 46.167,159.000 46.167 C 159.328 46.167,159.333 46.278,159.333 53.314 C 159.333 60.321,159.327 60.463,159.000 60.548 C 158.663 60.636,158.473 64.469,158.768 65.236 C 158.858 65.472,159.807 65.500,167.768 65.500 L 176.667 65.500 176.667 63.000 L 176.667 60.500 170.750 60.500 L 164.833 60.500 164.833 59.000 C 164.833 57.778,164.787 57.500,164.583 57.500 C 164.373 57.500,164.333 57.139,164.333 55.250 L 164.333 53.000 169.250 53.000 L 174.167 53.000 174.167 50.583 L 174.167 48.167 169.500 48.167 L 164.833 48.167 164.833 44.750 L 164.833 41.333 168.333 41.333 C 171.333 41.333,171.833 41.369,171.833 41.583 C 171.833 41.794,172.213 41.833,174.250 41.833 L 176.667 41.833 176.667 39.083 L 176.667 36.333 168.000 36.333 C 159.444 36.333,159.333 36.338,159.333 36.667 M180.500 50.917 L 180.500 65.500 183.250 65.500 L 186.000 65.500 186.000 60.500 L 186.000 55.500 187.583 55.500 L 189.167 55.500 189.167 56.167 C 189.167 56.722,189.222 56.833,189.500 56.833 C 189.770 56.833,189.833 56.944,189.833 57.417 C 189.833 57.824,189.909 58.000,190.083 58.000 C 190.222 58.000,190.333 58.148,190.333 58.333 C 190.333 58.556,190.444 58.667,190.667 58.667 C 190.937 58.667,191.000 58.778,191.000 59.250 C 191.000 59.722,191.063 59.833,191.333 59.833 C 191.604 59.833,191.667 59.944,191.667 60.422 C 191.667 60.791,191.760 61.046,191.917 61.106 C 192.054 61.159,192.167 61.307,192.167 61.434 C 192.167 61.562,192.317 61.667,192.500 61.667 C 192.771 61.667,192.833 61.778,192.833 62.266 C 192.833 62.724,192.911 62.885,193.167 62.952 C 193.351 63.000,193.500 63.179,193.500 63.353 C 193.500 63.556,193.618 63.667,193.833 63.667 C 194.103 63.667,194.167 63.778,194.167 64.250 C 194.167 64.657,194.242 64.833,194.417 64.833 C 194.556 64.833,194.667 64.981,194.667 65.167 C 194.667 65.382,194.778 65.500,194.981 65.500 C 195.154 65.500,195.333 65.649,195.382 65.833 C 195.527 66.390,199.000 66.292,199.000 65.731 C 199.000 65.565,199.236 65.500,199.837 65.500 C 200.597 65.500,200.691 65.457,200.852 65.042 C 201.112 64.369,200.957 62.669,200.613 62.418 C 200.459 62.305,200.333 62.128,200.333 62.023 C 200.333 61.919,200.183 61.833,200.000 61.833 C 199.778 61.833,199.667 61.722,199.667 61.500 C 199.667 61.278,199.556 61.167,199.333 61.167 C 199.065 61.167,199.000 61.056,199.000 60.601 C 199.000 60.252,198.904 59.999,198.750 59.940 C 198.612 59.887,198.500 59.729,198.500 59.589 C 198.500 59.444,198.355 59.333,198.167 59.333 C 197.944 59.333,197.833 59.222,197.833 59.000 C 197.833 58.778,197.722 58.667,197.500 58.667 C 197.230 58.667,197.167 58.556,197.167 58.083 C 197.167 57.611,197.103 57.500,196.833 57.500 C 196.611 57.500,196.500 57.389,196.500 57.167 C 196.500 56.981,196.389 56.833,196.250 56.833 C 196.083 56.833,196.000 56.667,196.000 56.335 C 196.000 56.017,195.879 55.761,195.667 55.628 C 195.483 55.513,195.333 55.325,195.333 55.210 C 195.333 55.094,195.183 55.000,195.000 55.000 C 194.722 55.000,194.667 54.889,194.667 54.333 C 194.667 53.679,194.678 53.667,195.266 53.667 C 195.724 53.667,195.885 53.589,195.952 53.333 C 196.000 53.150,196.143 53.000,196.269 53.000 C 196.396 53.000,196.500 52.896,196.500 52.769 C 196.500 52.643,196.650 52.500,196.833 52.452 C 197.017 52.404,197.167 52.254,197.167 52.118 C 197.167 51.983,197.317 51.833,197.500 51.785 C 197.755 51.718,197.833 51.558,197.833 51.099 C 197.833 50.611,197.895 50.500,198.167 50.500 C 198.437 50.500,198.500 50.389,198.500 49.917 C 198.500 49.509,198.575 49.333,198.750 49.333 C 198.955 49.333,199.000 49.046,199.000 47.750 C 199.000 46.278,199.023 46.167,199.333 46.167 C 199.635 46.167,199.667 46.056,199.667 45.000 C 199.667 43.944,199.635 43.833,199.333 43.833 C 199.023 43.833,199.000 43.722,199.000 42.250 C 199.000 40.954,198.955 40.667,198.750 40.667 C 198.611 40.667,198.500 40.519,198.500 40.333 C 198.500 40.111,198.389 40.000,198.167 40.000 C 197.897 40.000,197.833 39.889,197.833 39.417 C 197.833 38.944,197.770 38.833,197.500 38.833 C 197.278 38.833,197.167 38.722,197.167 38.500 C 197.167 38.285,197.056 38.167,196.853 38.167 C 196.679 38.167,196.500 38.018,196.452 37.833 C 196.388 37.591,196.224 37.500,195.849 37.500 C 195.502 37.500,195.333 37.418,195.333 37.250 C 195.333 37.058,195.120 37.000,194.417 37.000 C 193.611 37.000,193.500 36.960,193.500 36.667 C 193.500 36.339,193.389 36.333,187.000 36.333 L 180.500 36.333 180.500 50.917 M210.258 37.999 C 210.193 38.916,210.192 40.153,210.256 40.749 L 210.372 41.833 211.853 41.833 C 213.058 41.833,213.333 41.787,213.333 41.583 C 213.333 41.374,213.685 41.333,215.500 41.333 L 217.667 41.333 217.667 46.250 C 217.667 51.056,217.674 51.167,218.000 51.167 C 218.524 51.167,218.521 57.912,217.997 58.049 C 217.670 58.135,217.661 58.246,217.705 61.777 L 217.750 65.417 220.750 65.417 L 223.750 65.417 223.797 63.625 C 223.837 62.105,223.806 61.833,223.589 61.833 C 223.363 61.833,223.333 60.870,223.333 53.417 C 223.333 46.046,223.364 45.000,223.583 45.000 C 223.790 45.000,223.833 44.685,223.833 43.167 L 223.833 41.333 226.083 41.333 C 227.972 41.333,228.333 41.373,228.333 41.583 C 228.333 41.787,228.611 41.833,229.833 41.833 L 231.333 41.833 231.333 39.083 L 231.333 36.333 220.855 36.333 L 210.376 36.333 210.258 37.999 M235.167 50.913 L 235.167 65.500 237.917 65.500 L 240.667 65.500 240.667 59.583 L 240.667 53.667 246.583 53.667 L 252.500 53.667 252.500 59.583 L 252.500 65.500 255.250 65.500 L 258.000 65.500 258.000 50.913 L 258.000 36.325 255.292 36.371 L 252.583 36.417 252.540 42.292 L 252.496 48.167 246.583 48.167 L 240.671 48.167 240.627 42.292 L 240.583 36.417 237.875 36.371 L 235.167 36.325 235.167 50.913 M265.500 36.647 C 265.500 36.821,265.351 37.000,265.167 37.048 C 264.835 37.135,264.617 63.926,264.938 65.125 L 265.039 65.500 273.686 65.500 C 282.222 65.500,282.333 65.496,282.333 65.167 C 282.333 64.981,282.444 64.833,282.583 64.833 C 282.790 64.833,282.833 64.519,282.833 63.000 C 282.833 61.481,282.790 61.167,282.583 61.167 C 282.444 61.167,282.333 61.019,282.333 60.833 C 282.333 60.506,282.222 60.500,276.417 60.500 L 270.500 60.500 270.500 56.752 L 270.500 53.005 275.458 52.961 L 280.417 52.917 280.467 51.083 C 280.494 50.075,280.472 49.006,280.417 48.708 L 280.318 48.167 275.409 48.167 L 270.500 48.167 270.500 45.000 C 270.500 42.267,270.535 41.833,270.755 41.833 C 270.896 41.833,271.054 41.721,271.106 41.583 C 271.187 41.372,271.734 41.333,274.601 41.333 C 277.511 41.333,278.000 41.369,278.000 41.583 C 278.000 41.793,278.352 41.833,280.167 41.833 L 282.333 41.833 282.333 40.917 C 282.333 40.213,282.391 40.000,282.583 40.000 C 282.787 40.000,282.833 39.722,282.833 38.500 C 282.833 37.278,282.787 37.000,282.583 37.000 C 282.444 37.000,282.333 36.852,282.333 36.667 C 282.333 36.338,282.222 36.333,273.917 36.333 C 265.785 36.333,265.500 36.344,265.500 36.647 M143.167 41.583 C 143.167 41.775,143.380 41.833,144.083 41.833 C 144.889 41.833,145.000 41.874,145.000 42.167 C 145.000 42.389,145.111 42.500,145.333 42.500 C 145.556 42.500,145.667 42.611,145.667 42.833 C 145.667 43.056,145.778 43.167,146.000 43.167 C 146.185 43.167,146.333 43.278,146.333 43.417 C 146.333 43.554,146.446 43.667,146.583 43.667 C 146.721 43.667,146.833 43.786,146.833 43.932 C 146.833 44.078,146.983 44.237,147.167 44.285 C 147.419 44.351,147.500 44.512,147.500 44.952 C 147.500 45.391,147.581 45.552,147.833 45.618 C 148.126 45.695,148.167 45.846,148.167 46.853 C 148.167 47.889,148.199 48.000,148.500 48.000 C 148.820 48.000,148.833 48.111,148.833 50.814 C 148.833 53.488,148.817 53.632,148.500 53.715 C 148.206 53.792,148.167 53.942,148.167 54.984 C 148.167 56.056,148.135 56.167,147.833 56.167 C 147.565 56.167,147.500 56.278,147.500 56.739 C 147.500 57.164,147.415 57.338,147.167 57.417 C 146.983 57.475,146.833 57.622,146.833 57.743 C 146.833 57.865,146.721 58.008,146.583 58.060 C 146.446 58.113,146.333 58.262,146.333 58.392 C 146.333 58.522,146.183 58.667,146.000 58.715 C 145.817 58.763,145.667 58.922,145.667 59.068 C 145.667 59.222,145.527 59.333,145.333 59.333 C 145.148 59.333,145.000 59.444,145.000 59.583 C 145.000 59.752,144.832 59.833,144.484 59.833 C 144.109 59.833,143.945 59.924,143.882 60.167 C 143.798 60.487,143.654 60.500,140.064 60.500 L 136.333 60.500 136.333 50.917 L 136.333 41.333 139.750 41.333 C 142.676 41.333,143.167 41.369,143.167 41.583 M189.833 41.583 C 189.833 41.775,190.046 41.833,190.750 41.833 C 191.556 41.833,191.667 41.874,191.667 42.167 C 191.667 42.389,191.778 42.500,192.000 42.500 C 192.188 42.500,192.333 42.611,192.333 42.755 C 192.333 42.896,192.446 43.054,192.583 43.106 C 192.721 43.159,192.833 43.307,192.833 43.434 C 192.833 43.562,192.983 43.667,193.167 43.667 C 193.476 43.667,193.500 43.778,193.500 45.231 C 193.500 46.654,193.470 46.802,193.167 46.882 C 192.911 46.948,192.833 47.109,192.833 47.568 C 192.833 47.981,192.758 48.167,192.591 48.167 C 192.446 48.167,192.305 48.401,192.239 48.750 C 192.143 49.262,192.069 49.333,191.633 49.333 C 191.276 49.333,191.111 49.427,191.048 49.667 C 191.000 49.851,190.821 50.000,190.647 50.000 C 190.475 50.000,190.333 50.112,190.333 50.250 C 190.333 50.459,189.981 50.500,188.167 50.500 L 186.000 50.500 186.000 45.917 L 186.000 41.333 187.917 41.333 C 189.509 41.333,189.833 41.376,189.833 41.583 M92.542 71.110 C 92.427 71.157,92.333 71.301,92.333 71.431 C 92.333 71.560,92.183 71.667,92.000 71.667 C 91.778 71.667,91.667 71.778,91.667 72.000 C 91.667 72.222,91.556 72.333,91.333 72.333 C 91.111 72.333,91.000 72.444,91.000 72.667 C 91.000 72.889,90.889 73.000,90.667 73.000 C 90.483 73.000,90.333 73.104,90.333 73.232 C 90.333 73.360,90.221 73.508,90.083 73.560 C 89.880 73.638,89.833 74.042,89.833 75.745 C 89.833 77.490,89.874 77.833,90.083 77.833 C 90.222 77.833,90.333 77.981,90.333 78.167 C 90.333 78.389,90.444 78.500,90.667 78.500 C 90.889 78.500,91.000 78.611,91.000 78.833 C 91.000 79.056,91.111 79.167,91.333 79.167 C 91.519 79.167,91.667 79.278,91.667 79.417 C 91.667 79.556,91.815 79.667,92.000 79.667 C 92.222 79.667,92.333 79.778,92.333 80.000 C 92.333 80.270,92.444 80.333,92.917 80.333 C 93.389 80.333,93.500 80.397,93.500 80.667 C 93.500 80.932,93.611 81.000,94.043 81.000 C 94.406 81.000,94.656 81.111,94.795 81.333 C 94.927 81.546,95.183 81.667,95.501 81.667 C 95.995 81.667,96.000 81.677,96.000 82.583 L 96.000 83.500 95.428 83.500 C 95.002 83.500,94.829 83.585,94.750 83.833 C 94.671 84.081,94.498 84.167,94.072 84.167 C 93.611 84.167,93.500 84.102,93.500 83.833 C 93.500 83.556,93.389 83.500,92.833 83.500 C 92.278 83.500,92.167 83.444,92.167 83.167 C 92.167 82.983,92.085 82.833,91.985 82.833 C 91.885 82.833,91.673 82.672,91.513 82.475 C 91.183 82.067,90.333 82.147,90.333 82.587 C 90.333 82.722,90.221 82.833,90.083 82.833 C 89.892 82.833,89.833 83.045,89.833 83.739 C 89.833 84.498,89.779 84.661,89.500 84.750 C 89.269 84.823,89.167 85.002,89.167 85.333 C 89.167 85.664,89.269 85.843,89.500 85.917 C 89.683 85.975,89.833 86.130,89.833 86.261 C 89.833 86.423,90.021 86.500,90.417 86.500 C 90.889 86.500,91.000 86.563,91.000 86.833 C 91.000 87.155,91.111 87.167,94.083 87.167 C 97.056 87.167,97.167 87.155,97.167 86.833 C 97.167 86.565,97.278 86.500,97.732 86.500 C 98.081 86.500,98.334 86.404,98.394 86.250 C 98.446 86.112,98.604 86.000,98.745 86.000 C 98.885 86.000,99.000 85.859,99.000 85.686 C 99.000 85.512,99.149 85.333,99.333 85.285 C 99.649 85.202,99.667 85.058,99.667 82.516 C 99.667 79.944,99.653 79.833,99.333 79.833 C 99.111 79.833,99.000 79.722,99.000 79.500 C 99.000 79.315,98.889 79.167,98.750 79.167 C 98.612 79.167,98.500 79.047,98.500 78.901 C 98.500 78.755,98.350 78.596,98.167 78.548 C 97.983 78.500,97.833 78.365,97.833 78.248 C 97.833 77.998,97.465 77.833,96.903 77.833 C 96.656 77.833,96.500 77.737,96.500 77.583 C 96.500 77.409,96.324 77.333,95.917 77.333 C 95.444 77.333,95.333 77.270,95.333 77.000 C 95.333 76.732,95.222 76.667,94.769 76.667 C 94.346 76.667,94.184 76.584,94.118 76.333 C 94.070 76.150,93.912 76.000,93.766 76.000 C 93.611 76.000,93.500 75.861,93.500 75.667 C 93.500 75.481,93.611 75.333,93.750 75.333 C 93.888 75.333,94.000 75.221,94.000 75.083 C 94.000 74.946,94.120 74.833,94.266 74.833 C 94.412 74.833,94.570 74.683,94.618 74.500 C 94.687 74.239,94.846 74.167,95.353 74.167 C 95.889 74.167,96.000 74.224,96.000 74.500 C 96.000 74.770,96.111 74.833,96.583 74.833 C 96.991 74.833,97.167 74.909,97.167 75.083 C 97.167 75.275,97.380 75.333,98.083 75.333 L 99.000 75.333 99.000 74.750 C 99.000 74.278,99.063 74.167,99.333 74.167 C 99.637 74.167,99.667 74.056,99.667 72.917 L 99.667 71.667 99.103 71.667 C 98.679 71.667,98.517 71.584,98.452 71.333 C 98.367 71.010,93.268 70.817,92.542 71.110 M104.715 71.333 C 104.649 71.584,104.488 71.667,104.064 71.667 C 103.611 71.667,103.500 71.732,103.500 72.000 C 103.500 72.222,103.389 72.333,103.167 72.333 C 102.944 72.333,102.833 72.444,102.833 72.667 C 102.833 72.889,102.722 73.000,102.500 73.000 C 102.317 73.000,102.167 73.104,102.167 73.231 C 102.167 73.357,102.017 73.500,101.833 73.548 C 101.578 73.615,101.500 73.776,101.500 74.234 C 101.500 74.656,101.426 74.833,101.250 74.833 C 101.050 74.833,101.000 75.083,101.000 76.083 C 101.000 77.222,100.970 77.333,100.667 77.333 C 100.351 77.333,100.333 77.444,100.333 79.432 C 100.333 81.391,100.356 81.537,100.667 81.618 C 100.959 81.695,101.000 81.846,101.000 82.853 C 101.000 83.761,101.052 84.000,101.250 84.000 C 101.389 84.000,101.500 84.148,101.500 84.333 C 101.500 84.556,101.611 84.667,101.833 84.667 C 102.101 84.667,102.167 84.778,102.167 85.232 C 102.167 85.830,102.373 86.000,103.097 86.000 C 103.344 86.000,103.500 86.097,103.500 86.250 C 103.500 86.388,103.604 86.500,103.731 86.500 C 103.857 86.500,104.000 86.650,104.048 86.833 C 104.132 87.153,104.276 87.167,107.484 87.167 C 110.722 87.167,110.833 87.156,110.833 86.833 C 110.833 86.556,110.944 86.500,111.500 86.500 C 112.151 86.500,112.167 86.486,112.167 85.917 C 112.167 85.509,112.242 85.333,112.417 85.333 C 112.617 85.333,112.667 85.083,112.667 84.083 L 112.667 82.833 111.167 82.833 C 109.778 82.833,109.667 82.858,109.667 83.167 C 109.667 83.444,109.556 83.500,109.000 83.500 C 108.444 83.500,108.333 83.556,108.333 83.833 C 108.333 84.101,108.222 84.167,107.769 84.167 C 107.346 84.167,107.184 84.084,107.118 83.833 C 107.052 83.578,106.891 83.500,106.432 83.500 C 105.944 83.500,105.833 83.438,105.833 83.167 C 105.833 82.983,105.730 82.833,105.603 82.833 C 105.476 82.833,105.333 82.683,105.285 82.500 C 105.237 82.317,105.078 82.167,104.932 82.167 C 104.721 82.167,104.667 81.978,104.667 81.250 C 104.667 80.444,104.626 80.333,104.333 80.333 C 104.030 80.333,104.000 80.222,104.000 79.083 C 104.000 77.944,104.030 77.833,104.333 77.833 C 104.626 77.833,104.667 77.722,104.667 76.917 C 104.667 76.111,104.707 76.000,105.000 76.000 C 105.222 76.000,105.333 75.889,105.333 75.667 C 105.333 75.481,105.444 75.333,105.583 75.333 C 105.721 75.333,105.833 75.221,105.833 75.083 C 105.833 74.917,106.000 74.833,106.332 74.833 C 106.650 74.833,106.906 74.713,107.039 74.500 C 107.173 74.286,107.427 74.167,107.753 74.167 C 108.053 74.167,108.376 74.302,108.545 74.500 C 108.702 74.683,109.018 74.833,109.248 74.833 C 109.509 74.833,109.667 74.928,109.667 75.083 C 109.667 75.283,109.917 75.333,110.917 75.333 C 111.898 75.333,112.167 75.281,112.167 75.092 C 112.167 74.959,112.282 74.785,112.424 74.706 C 112.631 74.590,112.672 74.286,112.632 73.156 L 112.583 71.750 111.708 71.700 C 110.970 71.657,110.833 71.599,110.833 71.325 C 110.833 70.812,104.849 70.821,104.715 71.333 M113.625 71.115 C 113.138 71.242,113.179 82.833,113.667 82.833 C 113.960 82.833,114.000 82.944,114.000 83.750 C 114.000 84.556,114.040 84.667,114.333 84.667 C 114.591 84.667,114.667 84.778,114.667 85.159 C 114.667 85.812,115.354 86.500,116.008 86.500 C 116.389 86.500,116.500 86.575,116.500 86.833 C 116.500 87.155,116.611 87.167,119.583 87.167 C 122.556 87.167,122.667 87.155,122.667 86.833 C 122.667 86.563,122.778 86.500,123.250 86.500 C 123.657 86.500,123.833 86.425,123.833 86.250 C 123.833 86.111,123.981 86.000,124.167 86.000 C 124.389 86.000,124.500 85.889,124.500 85.667 C 124.500 85.444,124.611 85.333,124.833 85.333 C 125.056 85.333,125.167 85.222,125.167 85.000 C 125.167 84.817,125.271 84.667,125.399 84.667 C 125.799 84.667,125.833 84.258,125.833 79.486 C 125.833 75.461,125.867 74.833,126.083 74.833 C 126.290 74.833,126.333 74.521,126.333 73.019 C 126.333 70.891,126.459 71.006,124.125 71.002 L 122.667 71.000 122.667 76.583 C 122.667 81.486,122.636 82.167,122.411 82.167 C 122.271 82.167,122.108 82.298,122.049 82.458 C 121.990 82.619,121.842 82.810,121.721 82.883 C 121.599 82.957,121.500 83.125,121.500 83.258 C 121.500 83.425,121.313 83.500,120.901 83.500 C 120.442 83.500,120.282 83.578,120.215 83.833 C 120.149 84.084,119.988 84.167,119.564 84.167 C 119.111 84.167,119.000 84.101,119.000 83.833 C 119.000 83.618,118.889 83.500,118.686 83.500 C 118.512 83.500,118.333 83.351,118.285 83.167 C 118.237 82.983,118.087 82.833,117.952 82.833 C 117.816 82.833,117.666 82.683,117.618 82.500 C 117.570 82.317,117.412 82.167,117.266 82.167 C 117.028 82.167,117.000 81.581,117.000 76.583 L 117.000 71.000 115.458 71.019 C 114.610 71.030,113.785 71.073,113.625 71.115 M128.944 71.111 C 128.883 71.172,128.833 74.810,128.833 79.194 L 128.833 87.167 132.583 87.167 C 136.222 87.167,136.333 87.157,136.333 86.833 C 136.333 86.563,136.444 86.500,136.917 86.500 C 137.324 86.500,137.500 86.425,137.500 86.250 C 137.500 86.097,137.656 86.000,137.903 86.000 C 138.620 86.000,138.833 85.828,138.833 85.252 C 138.833 84.846,138.919 84.683,139.167 84.618 C 139.480 84.537,139.500 84.391,139.500 82.250 C 139.500 80.109,139.480 79.963,139.167 79.882 C 138.982 79.833,138.833 79.654,138.833 79.481 C 138.833 79.278,138.715 79.167,138.500 79.167 C 138.196 79.167,138.167 79.056,138.167 77.917 C 138.167 76.778,138.196 76.667,138.500 76.667 C 138.804 76.667,138.833 76.556,138.833 75.417 C 138.833 74.278,138.804 74.167,138.500 74.167 C 138.207 74.167,138.167 74.056,138.167 73.250 C 138.167 72.444,138.126 72.333,137.833 72.333 C 137.611 72.333,137.500 72.222,137.500 72.000 C 137.500 71.732,137.389 71.667,136.936 71.667 C 136.512 71.667,136.351 71.584,136.285 71.333 C 136.197 70.996,129.269 70.787,128.944 71.111 M144.586 71.163 C 144.530 71.252,144.441 71.702,144.386 72.163 C 144.321 72.709,144.208 73.000,144.060 73.000 C 143.896 73.000,143.833 73.255,143.833 73.917 C 143.833 74.722,143.793 74.833,143.500 74.833 C 143.230 74.833,143.167 74.944,143.167 75.417 C 143.167 75.804,143.089 76.000,142.934 76.000 C 142.637 76.000,142.500 76.365,142.500 77.162 C 142.500 77.573,142.412 77.832,142.250 77.894 C 142.069 77.963,142.000 78.246,142.000 78.911 C 142.000 79.722,141.960 79.833,141.667 79.833 C 141.374 79.833,141.333 79.944,141.333 80.750 C 141.333 81.556,141.293 81.667,141.000 81.667 C 140.730 81.667,140.667 81.778,140.667 82.250 C 140.667 82.636,140.588 82.833,140.436 82.833 C 140.176 82.833,140.006 83.332,140.002 84.107 C 140.001 84.417,139.898 84.670,139.750 84.727 C 139.561 84.800,139.500 85.107,139.500 85.995 L 139.500 87.167 141.333 87.167 L 143.167 87.167 143.167 86.269 C 143.167 85.512,143.219 85.359,143.500 85.285 C 143.778 85.212,143.833 85.058,143.833 84.349 L 143.833 83.500 146.333 83.500 L 148.833 83.500 148.833 84.083 C 148.833 84.491,148.909 84.667,149.083 84.667 C 149.275 84.667,149.333 84.880,149.333 85.583 C 149.333 86.389,149.374 86.500,149.667 86.500 C 149.889 86.500,150.000 86.611,150.000 86.833 C 150.000 87.143,150.111 87.167,151.583 87.167 L 153.167 87.167 153.167 85.667 C 153.167 84.278,153.142 84.167,152.833 84.167 C 152.540 84.167,152.500 84.056,152.500 83.234 C 152.500 82.442,152.450 82.289,152.167 82.215 C 151.885 82.141,151.833 81.988,151.833 81.231 C 151.833 80.444,151.792 80.333,151.500 80.333 C 151.207 80.333,151.167 80.222,151.167 79.417 C 151.167 78.713,151.109 78.500,150.917 78.500 C 150.725 78.500,150.667 78.287,150.667 77.583 C 150.667 76.778,150.626 76.667,150.333 76.667 C 150.040 76.667,150.000 76.556,150.000 75.750 C 150.000 74.944,149.960 74.833,149.667 74.833 C 149.374 74.833,149.333 74.722,149.333 73.917 C 149.333 73.213,149.275 73.000,149.083 73.000 C 148.906 73.000,148.833 72.818,148.831 72.375 C 148.826 70.974,148.867 71.000,146.657 71.000 C 145.555 71.000,144.642 71.072,144.586 71.163 M162.125 71.115 C 161.965 71.157,161.833 71.298,161.833 71.429 C 161.833 71.590,161.644 71.667,161.250 71.667 C 160.827 71.667,160.667 71.740,160.667 71.932 C 160.667 72.078,160.517 72.237,160.333 72.285 C 160.149 72.333,160.000 72.512,160.000 72.686 C 160.000 72.889,159.882 73.000,159.667 73.000 C 159.483 73.000,159.333 73.094,159.333 73.210 C 159.333 73.325,159.183 73.513,159.000 73.628 C 158.787 73.761,158.667 74.017,158.667 74.335 C 158.667 74.647,158.581 74.833,158.438 74.833 C 158.076 74.833,158.000 75.629,158.000 79.424 C 158.000 83.096,158.043 83.500,158.434 83.500 C 158.589 83.500,158.667 83.696,158.667 84.083 C 158.667 84.556,158.730 84.667,159.000 84.667 C 159.222 84.667,159.333 84.778,159.333 85.000 C 159.333 85.222,159.444 85.333,159.667 85.333 C 159.889 85.333,160.000 85.444,160.000 85.667 C 160.000 85.852,160.111 86.000,160.250 86.000 C 160.387 86.000,160.500 86.112,160.500 86.250 C 160.500 86.431,160.685 86.500,161.167 86.500 C 161.722 86.500,161.833 86.556,161.833 86.833 C 161.833 87.157,161.944 87.167,165.500 87.167 C 169.056 87.167,169.167 87.157,169.167 86.833 C 169.167 86.556,169.278 86.500,169.833 86.500 L 170.500 86.500 170.500 83.184 C 170.500 79.423,170.601 79.665,169.028 79.669 C 167.278 79.673,167.333 79.607,167.333 81.686 L 167.333 83.500 166.750 83.500 C 166.278 83.500,166.167 83.563,166.167 83.833 C 166.167 84.125,166.056 84.167,165.269 84.167 C 164.512 84.167,164.359 84.115,164.285 83.833 C 164.218 83.578,164.058 83.500,163.599 83.500 C 163.111 83.500,163.000 83.438,163.000 83.167 C 163.000 82.973,162.889 82.833,162.734 82.833 C 162.588 82.833,162.430 82.683,162.382 82.500 C 162.334 82.317,162.191 82.167,162.064 82.167 C 161.726 82.167,161.724 76.744,162.062 76.614 C 162.188 76.566,162.342 76.258,162.403 75.930 C 162.471 75.570,162.611 75.333,162.758 75.333 C 162.891 75.333,163.000 75.221,163.000 75.083 C 163.000 74.907,163.178 74.833,163.599 74.833 C 164.058 74.833,164.218 74.755,164.285 74.500 C 164.394 74.083,166.167 73.987,166.167 74.399 C 166.167 74.699,166.533 74.833,167.347 74.833 C 167.816 74.833,168.000 74.904,168.000 75.083 C 168.000 75.283,168.250 75.333,169.250 75.333 L 170.500 75.333 170.500 74.436 C 170.500 73.679,170.552 73.525,170.833 73.452 C 171.062 73.392,171.167 73.224,171.167 72.917 C 171.167 72.609,171.062 72.442,170.833 72.382 C 170.649 72.333,170.500 72.154,170.500 71.981 C 170.500 71.725,170.375 71.667,169.833 71.667 C 169.278 71.667,169.167 71.611,169.167 71.333 C 169.167 71.012,163.224 70.828,162.125 71.115 M173.111 71.111 C 173.050 71.172,173.000 74.810,173.000 79.194 L 173.000 87.167 177.906 87.167 L 182.811 87.167 182.881 86.708 L 182.950 86.250 182.975 86.708 L 183.000 87.167 184.500 87.167 C 185.889 87.167,186.000 87.142,186.000 86.833 C 186.000 86.611,186.111 86.500,186.333 86.500 C 186.626 86.500,186.667 86.389,186.667 85.583 C 186.667 84.911,186.729 84.667,186.899 84.667 C 187.154 84.667,187.333 84.316,187.333 83.820 C 187.333 83.519,187.479 83.500,189.750 83.500 L 192.167 83.500 192.167 84.153 C 192.167 84.967,192.301 85.333,192.601 85.333 C 192.771 85.333,192.833 85.578,192.833 86.250 L 192.833 87.167 194.667 87.167 L 196.500 87.167 196.500 85.917 C 196.500 84.917,196.450 84.667,196.250 84.667 C 196.060 84.667,196.000 84.461,196.000 83.818 C 196.000 83.109,195.945 82.954,195.667 82.882 C 195.385 82.808,195.333 82.654,195.333 81.897 C 195.333 81.111,195.292 81.000,195.000 81.000 C 194.707 81.000,194.667 80.889,194.667 80.083 C 194.667 79.380,194.609 79.167,194.417 79.167 C 194.227 79.167,194.167 78.961,194.167 78.318 C 194.167 77.609,194.112 77.454,193.833 77.382 C 193.553 77.308,193.500 77.154,193.500 76.408 C 193.500 75.669,193.445 75.505,193.167 75.417 C 192.887 75.328,192.833 75.164,192.833 74.405 C 192.833 73.611,192.792 73.500,192.500 73.500 C 192.207 73.500,192.167 73.389,192.167 72.583 C 192.167 71.914,192.104 71.667,191.936 71.667 C 191.809 71.667,191.666 71.514,191.617 71.328 C 191.534 71.009,191.419 70.991,189.722 71.036 L 187.917 71.083 187.865 71.708 C 187.831 72.117,187.730 72.333,187.573 72.333 C 187.394 72.333,187.333 72.563,187.333 73.250 C 187.333 74.056,187.293 74.167,187.000 74.167 C 186.729 74.167,186.667 74.278,186.667 74.766 C 186.667 75.224,186.589 75.385,186.333 75.452 C 186.052 75.525,186.000 75.679,186.000 76.436 C 186.000 77.092,185.938 77.333,185.768 77.333 C 185.468 77.333,185.333 77.699,185.333 78.514 C 185.333 78.983,185.263 79.167,185.083 79.167 C 184.910 79.167,184.833 79.340,184.833 79.731 C 184.833 80.154,184.750 80.316,184.500 80.382 C 184.222 80.454,184.167 80.609,184.167 81.306 C 184.167 81.998,184.108 82.163,183.833 82.250 C 183.554 82.339,183.500 82.502,183.500 83.261 C 183.500 83.931,183.439 84.167,183.264 84.167 C 183.134 84.167,182.990 84.260,182.944 84.375 C 182.897 84.490,182.854 84.340,182.846 84.042 C 182.830 83.360,181.291 83.174,181.118 83.833 C 181.037 84.145,180.891 84.167,178.849 84.167 L 176.667 84.167 176.667 82.250 L 176.667 80.333 179.167 80.333 L 181.667 80.333 181.667 78.833 L 181.667 77.333 179.167 77.333 L 176.667 77.333 176.667 75.750 L 176.667 74.167 179.731 74.167 C 182.767 74.167,182.795 74.163,182.895 73.792 C 183.026 73.301,183.027 72.176,182.896 71.521 L 182.792 71.000 178.007 71.000 C 175.375 71.000,173.172 71.050,173.111 71.111 M197.944 71.111 C 197.883 71.172,197.833 74.810,197.833 79.194 L 197.833 87.167 199.667 87.167 L 201.500 87.167 201.500 84.417 C 201.500 81.830,201.519 81.667,201.816 81.667 C 201.989 81.667,202.174 81.779,202.227 81.917 C 202.280 82.054,202.438 82.167,202.578 82.167 C 202.722 82.167,202.833 82.312,202.833 82.500 C 202.833 82.722,202.944 82.833,203.167 82.833 C 203.435 82.833,203.500 82.944,203.500 83.399 C 203.500 83.748,203.596 84.001,203.750 84.060 C 203.887 84.113,204.000 84.302,204.000 84.481 C 204.000 84.983,204.179 85.333,204.434 85.333 C 204.562 85.333,204.667 85.483,204.667 85.667 C 204.667 85.889,204.778 86.000,205.000 86.000 C 205.270 86.000,205.333 86.111,205.333 86.583 L 205.333 87.167 207.167 87.167 C 208.889 87.167,209.000 87.146,209.000 86.833 C 209.000 86.611,209.111 86.500,209.333 86.500 C 209.595 86.500,209.667 86.389,209.667 85.984 C 209.667 85.609,209.576 85.445,209.333 85.382 C 209.083 85.316,209.000 85.154,209.000 84.731 C 209.000 84.278,208.934 84.167,208.667 84.167 C 208.444 84.167,208.333 84.056,208.333 83.833 C 208.333 83.650,208.230 83.500,208.103 83.500 C 207.976 83.500,207.833 83.350,207.785 83.167 C 207.737 82.983,207.578 82.833,207.432 82.833 C 207.240 82.833,207.167 82.673,207.167 82.250 C 207.167 81.778,207.103 81.667,206.833 81.667 C 206.556 81.667,206.500 81.556,206.500 81.000 C 206.500 80.444,206.556 80.333,206.833 80.333 C 207.056 80.333,207.167 80.222,207.167 80.000 C 207.167 79.817,207.260 79.665,207.375 79.664 C 207.490 79.662,207.752 79.483,207.958 79.265 C 208.442 78.755,208.557 73.000,208.083 73.000 C 207.946 73.000,207.833 72.880,207.833 72.734 C 207.833 72.588,207.683 72.430,207.500 72.382 C 207.316 72.333,207.167 72.154,207.167 71.981 C 207.167 71.725,207.042 71.667,206.500 71.667 C 205.944 71.667,205.833 71.611,205.833 71.333 C 205.833 70.997,198.272 70.784,197.944 71.111 M219.000 71.333 C 219.000 71.556,218.889 71.667,218.667 71.667 C 218.375 71.667,218.333 71.778,218.333 72.564 C 218.333 73.321,218.281 73.475,218.000 73.548 C 217.745 73.615,217.667 73.776,217.667 74.234 C 217.667 74.656,217.593 74.833,217.417 74.833 C 217.246 74.833,217.166 75.006,217.164 75.375 C 217.161 76.167,216.993 76.667,216.731 76.667 C 216.562 76.667,216.500 76.914,216.500 77.583 C 216.500 78.389,216.460 78.500,216.167 78.500 C 215.889 78.500,215.833 78.611,215.833 79.167 C 215.833 79.625,215.761 79.833,215.601 79.833 C 215.301 79.833,215.167 80.199,215.167 81.014 C 215.167 81.483,215.096 81.667,214.917 81.667 C 214.725 81.667,214.667 81.880,214.667 82.583 C 214.667 83.389,214.626 83.500,214.333 83.500 C 214.040 83.500,214.000 83.611,214.000 84.417 C 214.000 85.230,213.961 85.333,213.658 85.333 C 213.350 85.333,213.321 85.421,213.366 86.208 L 213.417 87.083 215.208 87.131 L 217.000 87.178 217.000 86.600 C 217.000 86.169,217.084 85.996,217.333 85.917 C 217.613 85.828,217.667 85.664,217.667 84.905 C 217.667 84.111,217.708 84.000,218.000 84.000 C 218.185 84.000,218.333 83.889,218.333 83.750 C 218.333 83.541,218.685 83.500,220.500 83.500 C 222.234 83.500,222.667 83.546,222.667 83.731 C 222.667 83.857,222.817 84.000,223.000 84.048 C 223.283 84.122,223.333 84.276,223.333 85.068 C 223.333 85.772,223.393 86.000,223.576 86.000 C 223.721 86.000,223.862 86.235,223.929 86.589 L 224.039 87.178 225.811 87.130 L 227.583 87.083 227.634 86.208 C 227.679 85.421,227.650 85.333,227.342 85.333 C 227.039 85.333,227.000 85.230,227.000 84.417 C 227.000 83.611,226.960 83.500,226.667 83.500 C 226.374 83.500,226.333 83.389,226.333 82.583 C 226.333 81.880,226.275 81.667,226.083 81.667 C 225.891 81.667,225.833 81.454,225.833 80.750 C 225.833 79.944,225.793 79.833,225.500 79.833 C 225.206 79.833,225.167 79.722,225.167 78.901 C 225.167 78.109,225.117 77.956,224.833 77.882 C 224.552 77.808,224.500 77.654,224.500 76.897 C 224.500 76.111,224.459 76.000,224.167 76.000 C 223.874 76.000,223.833 75.889,223.833 75.083 C 223.833 74.380,223.775 74.167,223.583 74.167 C 223.391 74.167,223.333 73.954,223.333 73.250 C 223.333 72.444,223.293 72.333,223.000 72.333 C 222.722 72.333,222.667 72.222,222.667 71.667 L 222.667 71.000 220.833 71.000 C 219.111 71.000,219.000 71.020,219.000 71.333 M228.944 71.111 C 228.883 71.172,228.833 74.810,228.833 79.194 L 228.833 87.167 230.417 87.167 L 232.000 87.167 232.000 82.766 C 232.000 78.447,232.006 78.366,232.333 78.452 C 232.518 78.500,232.667 78.679,232.667 78.853 C 232.667 79.025,232.776 79.167,232.909 79.167 C 233.054 79.167,233.195 79.401,233.261 79.750 C 233.324 80.084,233.469 80.333,233.602 80.333 C 233.729 80.333,233.833 80.483,233.833 80.667 C 233.833 80.889,233.944 81.000,234.167 81.000 C 234.437 81.000,234.500 81.111,234.500 81.583 C 234.500 82.056,234.563 82.167,234.833 82.167 C 235.056 82.167,235.167 82.278,235.167 82.500 C 235.167 82.685,235.278 82.833,235.417 82.833 C 235.591 82.833,235.667 83.009,235.667 83.417 C 235.667 83.889,235.730 84.000,236.000 84.000 C 236.222 84.000,236.333 84.111,236.333 84.333 C 236.333 84.556,236.444 84.667,236.667 84.667 C 236.944 84.667,237.000 84.778,237.000 85.333 C 237.000 85.792,237.072 86.000,237.232 86.000 C 237.360 86.000,237.508 86.112,237.560 86.250 C 237.613 86.388,237.771 86.500,237.911 86.500 C 238.056 86.500,238.167 86.645,238.167 86.833 C 238.167 87.146,238.278 87.167,239.978 87.167 L 241.790 87.167 241.893 86.542 C 242.067 85.486,242.016 71.896,241.835 71.422 C 241.671 70.989,241.667 70.988,239.960 71.036 L 238.250 71.083 238.206 75.458 C 238.163 79.695,238.151 79.833,237.831 79.833 C 237.556 79.833,237.500 79.720,237.500 79.167 C 237.500 78.710,237.427 78.500,237.269 78.500 C 237.143 78.500,237.000 78.350,236.952 78.167 C 236.904 77.983,236.745 77.833,236.599 77.833 C 236.407 77.833,236.333 77.673,236.333 77.250 C 236.333 76.778,236.270 76.667,236.000 76.667 C 235.730 76.667,235.667 76.556,235.667 76.083 C 235.667 75.688,235.590 75.500,235.428 75.500 C 235.297 75.500,235.142 75.350,235.083 75.167 C 235.025 74.983,234.870 74.833,234.739 74.833 C 234.585 74.833,234.500 74.656,234.500 74.335 C 234.500 74.017,234.379 73.761,234.167 73.628 C 233.983 73.513,233.833 73.325,233.833 73.210 C 233.833 73.094,233.683 73.000,233.500 73.000 C 233.230 73.000,233.167 72.889,233.167 72.411 C 233.167 72.060,233.072 71.787,232.933 71.733 C 232.805 71.684,232.662 71.499,232.615 71.322 C 232.530 70.996,229.248 70.807,228.944 71.111 M244.667 71.163 C 244.141 71.495,244.232 78.500,244.762 78.500 C 245.118 78.500,245.110 82.631,244.754 82.898 C 244.430 83.142,244.261 84.690,244.409 86.068 L 244.527 87.167 249.097 87.167 C 253.556 87.167,253.667 87.159,253.667 86.833 C 253.667 86.556,253.778 86.500,254.333 86.500 C 254.815 86.500,255.000 86.431,255.000 86.250 C 255.000 86.112,255.107 86.000,255.239 86.000 C 255.370 86.000,255.525 85.850,255.583 85.667 C 255.642 85.483,255.797 85.333,255.928 85.333 C 256.059 85.333,256.167 85.183,256.167 85.000 C 256.167 84.778,256.278 84.667,256.500 84.667 C 256.768 84.667,256.833 84.556,256.833 84.103 C 256.833 83.679,256.916 83.517,257.167 83.452 C 257.445 83.379,257.500 83.224,257.500 82.516 C 257.500 81.872,257.560 81.667,257.750 81.667 C 257.963 81.667,258.000 81.213,258.000 78.583 C 258.000 75.954,257.963 75.500,257.750 75.500 C 257.569 75.500,257.500 75.315,257.500 74.833 C 257.500 74.278,257.444 74.167,257.167 74.167 C 256.897 74.167,256.833 74.056,256.833 73.583 C 256.833 73.111,256.770 73.000,256.500 73.000 C 256.278 73.000,256.167 72.889,256.167 72.667 C 256.167 72.444,256.056 72.333,255.833 72.333 C 255.611 72.333,255.500 72.222,255.500 72.000 C 255.500 71.730,255.389 71.667,254.917 71.667 C 254.531 71.667,254.333 71.588,254.333 71.436 C 254.333 70.998,245.331 70.744,244.667 71.163 M266.882 71.333 C 266.816 71.586,266.654 71.667,266.215 71.667 C 265.785 71.667,265.614 71.749,265.552 71.985 C 265.507 72.159,265.326 72.340,265.151 72.386 C 264.976 72.431,264.833 72.588,264.833 72.734 C 264.833 72.880,264.721 73.000,264.583 73.000 C 264.446 73.000,264.333 73.104,264.333 73.231 C 264.333 73.357,264.183 73.500,264.000 73.548 C 263.747 73.614,263.667 73.776,263.667 74.215 C 263.667 74.654,263.586 74.816,263.333 74.882 C 263.011 74.966,263.000 75.109,263.000 79.167 C 263.000 83.224,263.011 83.367,263.333 83.452 C 263.584 83.517,263.667 83.679,263.667 84.103 C 263.667 84.556,263.732 84.667,264.000 84.667 C 264.222 84.667,264.333 84.778,264.333 85.000 C 264.333 85.183,264.437 85.333,264.564 85.333 C 264.691 85.333,264.834 85.483,264.882 85.667 C 264.930 85.850,265.088 86.000,265.234 86.000 C 265.380 86.000,265.500 86.112,265.500 86.250 C 265.500 86.431,265.685 86.500,266.167 86.500 C 266.722 86.500,266.833 86.556,266.833 86.833 C 266.833 87.155,266.944 87.167,269.917 87.167 C 272.889 87.167,273.000 87.155,273.000 86.833 C 273.000 86.563,273.111 86.500,273.583 86.500 C 273.991 86.500,274.167 86.425,274.167 86.250 C 274.167 86.111,274.315 86.000,274.500 86.000 C 274.810 86.000,274.833 85.889,274.833 84.417 L 274.833 82.833 273.401 82.833 C 272.109 82.833,271.960 82.866,271.882 83.167 C 271.813 83.428,271.654 83.500,271.147 83.500 C 270.611 83.500,270.500 83.557,270.500 83.833 C 270.500 84.111,270.389 84.167,269.833 84.167 C 269.278 84.167,269.167 84.111,269.167 83.833 C 269.167 83.563,269.056 83.500,268.583 83.500 C 268.111 83.500,268.000 83.437,268.000 83.167 C 268.000 82.944,267.889 82.833,267.667 82.833 C 267.397 82.833,267.333 82.722,267.333 82.250 C 267.333 81.843,267.258 81.667,267.083 81.667 C 266.872 81.667,266.833 81.280,266.833 79.184 C 266.833 77.132,266.877 76.686,267.083 76.606 C 267.240 76.546,267.333 76.291,267.333 75.922 C 267.333 75.444,267.396 75.333,267.667 75.333 C 267.852 75.333,268.000 75.222,268.000 75.083 C 268.000 74.915,268.168 74.833,268.516 74.833 C 268.891 74.833,269.055 74.743,269.118 74.500 C 269.193 74.214,269.346 74.167,270.186 74.167 C 271.056 74.167,271.167 74.204,271.167 74.500 C 271.167 74.770,271.278 74.833,271.750 74.833 C 272.157 74.833,272.333 74.909,272.333 75.083 C 272.333 75.283,272.584 75.333,273.589 75.333 L 274.845 75.333 274.797 73.542 L 274.750 71.750 274.125 71.698 C 273.741 71.667,273.500 71.561,273.500 71.424 C 273.500 70.843,267.033 70.754,266.882 71.333 M279.215 71.333 C 279.149 71.584,278.988 71.667,278.564 71.667 C 278.111 71.667,278.000 71.732,278.000 72.000 C 278.000 72.268,277.889 72.333,277.434 72.333 C 276.857 72.333,276.667 72.543,276.667 73.180 C 276.667 73.356,276.554 73.500,276.417 73.500 C 276.279 73.500,276.167 73.641,276.167 73.814 C 276.167 73.988,276.018 74.167,275.833 74.215 C 275.540 74.292,275.500 74.442,275.500 75.484 C 275.500 76.556,275.469 76.667,275.167 76.667 C 274.849 76.667,274.833 76.778,274.833 79.099 C 274.833 81.391,274.853 81.536,275.167 81.618 C 275.459 81.695,275.500 81.846,275.500 82.853 C 275.500 83.889,275.532 84.000,275.833 84.000 C 276.111 84.000,276.167 84.111,276.167 84.667 C 276.167 85.033,276.238 85.333,276.326 85.333 C 276.532 85.333,277.333 86.134,277.333 86.341 C 277.333 86.428,277.603 86.500,277.932 86.500 C 278.391 86.500,278.552 86.578,278.618 86.833 C 278.702 87.153,278.846 87.167,282.019 87.167 C 285.222 87.167,285.333 87.155,285.333 86.833 C 285.333 86.556,285.444 86.500,286.000 86.500 C 286.481 86.500,286.667 86.431,286.667 86.250 C 286.667 86.112,286.786 86.000,286.932 86.000 C 287.078 86.000,287.237 85.850,287.285 85.667 C 287.333 85.483,287.476 85.333,287.603 85.333 C 287.730 85.333,287.833 85.192,287.833 85.019 C 287.833 84.846,287.982 84.667,288.167 84.618 C 288.445 84.546,288.500 84.391,288.500 83.682 C 288.500 82.944,288.544 82.833,288.833 82.833 C 289.157 82.833,289.167 82.722,289.167 78.833 C 289.167 74.944,289.157 74.833,288.833 74.833 C 288.556 74.833,288.500 74.722,288.500 74.167 C 288.500 73.611,288.444 73.500,288.167 73.500 C 287.981 73.500,287.833 73.389,287.833 73.250 C 287.833 73.112,287.721 73.000,287.583 73.000 C 287.444 73.000,287.333 72.852,287.333 72.667 C 287.333 72.444,287.222 72.333,287.000 72.333 C 286.778 72.333,286.667 72.222,286.667 72.000 C 286.667 71.722,286.556 71.667,286.000 71.667 C 285.444 71.667,285.333 71.611,285.333 71.333 C 285.333 71.012,285.222 71.000,282.318 71.000 C 279.442 71.000,279.298 71.015,279.215 71.333 M290.625 71.177 C 290.139 71.465,290.180 82.833,290.667 82.833 C 290.960 82.833,291.000 82.944,291.000 83.750 C 291.000 84.556,291.040 84.667,291.333 84.667 C 291.602 84.667,291.667 84.778,291.667 85.239 C 291.667 85.664,291.752 85.838,292.000 85.917 C 292.183 85.975,292.333 86.130,292.333 86.261 C 292.333 86.423,292.521 86.500,292.917 86.500 C 293.389 86.500,293.500 86.563,293.500 86.833 C 293.500 87.155,293.611 87.167,296.583 87.167 C 299.556 87.167,299.667 87.155,299.667 86.833 C 299.667 86.563,299.778 86.500,300.255 86.500 C 300.625 86.500,300.880 86.407,300.940 86.250 C 300.992 86.112,301.140 86.000,301.268 86.000 C 301.396 86.000,301.500 85.850,301.500 85.667 C 301.500 85.444,301.611 85.333,301.833 85.333 C 302.049 85.333,302.167 85.222,302.167 85.019 C 302.167 84.846,302.316 84.667,302.500 84.618 C 302.811 84.537,302.833 84.391,302.833 82.432 C 302.833 80.678,302.874 80.333,303.083 80.333 C 303.472 80.333,303.459 71.250,303.070 71.101 C 302.925 71.046,302.100 71.000,301.236 71.000 L 299.667 71.000 299.667 76.583 C 299.667 81.486,299.636 82.167,299.411 82.167 C 299.271 82.167,299.108 82.298,299.049 82.458 C 298.990 82.619,298.842 82.810,298.721 82.883 C 298.599 82.957,298.500 83.125,298.500 83.258 C 298.500 83.425,298.313 83.500,297.901 83.500 C 297.442 83.500,297.282 83.578,297.215 83.833 C 297.149 84.084,296.988 84.167,296.564 84.167 C 296.111 84.167,296.000 84.101,296.000 83.833 C 296.000 83.618,295.889 83.500,295.686 83.500 C 295.512 83.500,295.333 83.351,295.285 83.167 C 295.237 82.983,295.078 82.833,294.932 82.833 C 294.778 82.833,294.667 82.694,294.667 82.500 C 294.667 82.316,294.556 82.167,294.419 82.167 C 294.206 82.167,294.165 81.398,294.127 76.625 L 294.083 71.083 292.500 71.044 C 291.626 71.022,290.786 71.081,290.625 71.177 M305.944 71.111 C 305.883 71.172,305.833 74.810,305.833 79.194 L 305.833 87.167 307.417 87.167 L 309.000 87.167 309.000 84.417 L 309.000 81.667 309.667 81.667 C 310.317 81.667,310.333 81.681,310.333 82.250 C 310.333 82.657,310.409 82.833,310.583 82.833 C 310.722 82.833,310.833 82.981,310.833 83.167 C 310.833 83.389,310.944 83.500,311.167 83.500 C 311.437 83.500,311.500 83.611,311.500 84.083 C 311.500 84.556,311.563 84.667,311.833 84.667 C 312.101 84.667,312.167 84.778,312.167 85.232 C 312.167 85.581,312.262 85.834,312.417 85.894 C 312.554 85.946,312.667 86.104,312.667 86.245 C 312.667 86.389,312.812 86.500,313.000 86.500 C 313.222 86.500,313.333 86.611,313.333 86.833 C 313.333 87.146,313.444 87.167,315.167 87.167 L 317.000 87.167 317.000 85.917 C 317.000 84.917,316.950 84.667,316.750 84.667 C 316.612 84.667,316.500 84.554,316.500 84.417 C 316.500 84.278,316.352 84.167,316.167 84.167 C 315.895 84.167,315.833 84.056,315.833 83.568 C 315.833 83.109,315.755 82.948,315.500 82.882 C 315.317 82.834,315.167 82.688,315.167 82.559 C 315.167 82.429,315.054 82.280,314.917 82.227 C 314.779 82.174,314.667 82.027,314.667 81.899 C 314.667 81.771,314.517 81.667,314.333 81.667 C 314.111 81.667,314.000 81.556,314.000 81.333 C 314.000 81.148,314.111 81.000,314.250 81.000 C 314.389 81.000,314.500 80.852,314.500 80.667 C 314.500 80.444,314.611 80.333,314.833 80.333 C 315.103 80.333,315.167 80.222,315.167 79.750 C 315.167 79.278,315.230 79.167,315.500 79.167 C 315.776 79.167,315.833 79.056,315.833 78.519 C 315.833 78.012,315.906 77.853,316.167 77.785 C 316.472 77.705,316.500 77.558,316.500 76.000 C 316.500 74.442,316.472 74.295,316.167 74.215 C 315.916 74.149,315.833 73.988,315.833 73.564 C 315.833 73.111,315.768 73.000,315.500 73.000 C 315.278 73.000,315.167 72.889,315.167 72.667 C 315.167 72.481,315.056 72.333,314.917 72.333 C 314.779 72.333,314.667 72.218,314.667 72.078 C 314.667 71.938,314.541 71.775,314.388 71.716 C 314.234 71.657,313.972 71.472,313.804 71.304 C 313.494 70.994,306.240 70.815,305.944 71.111 M320.458 71.115 C 320.298 71.157,320.167 71.289,320.167 71.409 C 320.167 71.530,320.017 71.667,319.833 71.715 C 319.650 71.763,319.500 71.922,319.500 72.068 C 319.500 72.214,319.387 72.333,319.250 72.333 C 319.111 72.333,319.000 72.481,319.000 72.667 C 319.000 72.889,318.889 73.000,318.667 73.000 C 318.397 73.000,318.333 73.111,318.333 73.583 C 318.333 74.056,318.270 74.167,318.000 74.167 C 317.691 74.167,317.667 74.278,317.667 75.682 C 317.667 77.058,317.697 77.206,318.000 77.285 C 318.250 77.351,318.333 77.512,318.333 77.936 C 318.333 78.389,318.399 78.500,318.667 78.500 C 318.889 78.500,319.000 78.611,319.000 78.833 C 319.000 79.019,319.111 79.167,319.250 79.167 C 319.387 79.167,319.500 79.279,319.500 79.417 C 319.500 79.554,319.641 79.667,319.814 79.667 C 319.988 79.667,320.167 79.816,320.215 80.000 C 320.281 80.253,320.442 80.333,320.882 80.333 C 321.321 80.333,321.482 80.414,321.548 80.667 C 321.612 80.909,321.776 81.000,322.151 81.000 C 322.482 81.000,322.667 81.084,322.667 81.233 C 322.667 81.366,322.937 81.530,323.292 81.614 C 324.057 81.794,324.404 83.500,323.675 83.500 C 323.444 83.500,323.333 83.608,323.333 83.833 C 323.333 84.111,323.222 84.167,322.667 84.167 C 322.111 84.167,322.000 84.111,322.000 83.833 C 322.000 83.566,321.889 83.500,321.436 83.500 C 321.012 83.500,320.851 83.417,320.785 83.167 C 320.718 82.911,320.558 82.833,320.099 82.833 C 319.689 82.833,319.500 82.758,319.500 82.593 C 319.500 82.461,319.421 82.304,319.324 82.244 C 319.043 82.071,318.333 82.316,318.333 82.587 C 318.333 82.722,318.183 82.833,318.000 82.833 C 317.687 82.833,317.667 82.944,317.667 84.667 L 317.667 86.500 318.333 86.500 C 318.889 86.500,319.000 86.556,319.000 86.833 C 319.000 87.155,319.111 87.167,322.083 87.167 C 325.056 87.167,325.167 87.155,325.167 86.833 C 325.167 86.563,325.278 86.500,325.750 86.500 C 326.157 86.500,326.333 86.425,326.333 86.250 C 326.333 86.112,326.453 86.000,326.599 86.000 C 326.745 86.000,326.902 85.857,326.948 85.682 C 326.993 85.507,327.174 85.327,327.349 85.281 C 327.609 85.213,327.667 85.044,327.667 84.349 C 327.667 83.734,327.731 83.500,327.899 83.500 C 328.195 83.500,328.334 83.134,328.331 82.361 C 328.328 81.504,328.167 81.000,327.897 81.000 C 327.745 81.000,327.667 80.802,327.667 80.417 C 327.667 79.944,327.603 79.833,327.333 79.833 C 327.111 79.833,327.000 79.722,327.000 79.500 C 327.000 79.278,326.889 79.167,326.667 79.167 C 326.444 79.167,326.333 79.056,326.333 78.833 C 326.333 78.650,326.226 78.500,326.095 78.500 C 325.963 78.500,325.808 78.350,325.750 78.167 C 325.671 77.919,325.498 77.833,325.072 77.833 C 324.675 77.833,324.500 77.757,324.500 77.583 C 324.500 77.409,324.324 77.333,323.917 77.333 C 323.444 77.333,323.333 77.270,323.333 77.000 C 323.333 76.722,323.222 76.667,322.667 76.667 C 322.111 76.667,322.000 76.611,322.000 76.333 C 322.000 76.148,321.889 76.000,321.750 76.000 C 321.611 76.000,321.500 75.852,321.500 75.667 C 321.500 75.481,321.611 75.333,321.750 75.333 C 321.887 75.333,322.000 75.221,322.000 75.083 C 322.000 74.946,322.120 74.833,322.266 74.833 C 322.412 74.833,322.570 74.683,322.618 74.500 C 322.686 74.241,322.846 74.167,323.333 74.167 C 323.821 74.167,323.981 74.241,324.048 74.500 C 324.112 74.743,324.276 74.833,324.651 74.833 C 324.998 74.833,325.167 74.915,325.167 75.083 C 325.167 75.275,325.380 75.333,326.083 75.333 C 326.709 75.333,327.000 75.267,327.000 75.123 C 327.000 75.008,327.150 74.820,327.333 74.705 C 327.624 74.524,327.667 74.317,327.667 73.082 C 327.667 71.778,327.640 71.667,327.333 71.667 C 327.150 71.667,327.000 71.563,327.000 71.436 C 327.000 71.046,321.716 70.786,320.458 71.115 M329.792 71.115 C 329.321 71.238,329.360 73.500,329.833 73.500 C 330.160 73.500,330.167 73.611,330.167 79.417 C 330.167 85.272,330.163 85.333,329.825 85.333 C 329.517 85.333,329.488 85.421,329.533 86.208 L 329.583 87.083 334.542 87.127 C 339.354 87.170,339.500 87.162,339.500 86.848 C 339.500 86.480,339.796 86.388,340.702 86.475 C 341.189 86.521,341.333 86.607,341.333 86.851 C 341.333 87.149,341.501 87.167,344.417 87.167 C 347.389 87.167,347.500 87.155,347.500 86.833 C 347.500 86.565,347.611 86.500,348.066 86.500 C 348.414 86.500,348.668 86.404,348.727 86.250 C 348.780 86.112,348.938 86.000,349.078 86.000 C 349.222 86.000,349.333 85.855,349.333 85.667 C 349.333 85.444,349.444 85.333,349.667 85.333 C 349.938 85.333,350.000 85.222,350.000 84.734 C 350.000 84.276,350.078 84.115,350.333 84.048 C 350.640 83.968,350.667 83.821,350.667 82.215 C 350.667 80.609,350.640 80.462,350.333 80.382 C 350.150 80.334,350.000 80.191,350.000 80.064 C 350.000 79.937,349.880 79.833,349.734 79.833 C 349.588 79.833,349.430 79.683,349.382 79.500 C 349.334 79.317,349.199 79.167,349.083 79.167 C 348.967 79.167,348.833 79.017,348.785 78.833 C 348.737 78.650,348.587 78.500,348.452 78.500 C 348.316 78.500,348.166 78.350,348.118 78.167 C 348.052 77.911,347.891 77.833,347.432 77.833 C 347.011 77.833,346.833 77.759,346.833 77.583 C 346.833 77.409,346.657 77.333,346.250 77.333 C 345.778 77.333,345.667 77.270,345.667 77.000 C 345.667 76.778,345.556 76.667,345.333 76.667 C 345.139 76.667,345.000 76.556,345.000 76.401 C 345.000 76.255,344.850 76.096,344.667 76.048 C 344.416 75.983,344.333 75.821,344.333 75.397 C 344.333 74.944,344.399 74.833,344.667 74.833 C 344.889 74.833,345.000 74.722,345.000 74.500 C 345.000 74.222,345.111 74.167,345.667 74.167 C 346.125 74.167,346.333 74.239,346.333 74.399 C 346.333 74.654,346.684 74.833,347.180 74.833 C 347.356 74.833,347.500 74.946,347.500 75.083 C 347.500 75.283,347.750 75.333,348.750 75.333 L 350.000 75.333 350.000 73.500 C 350.000 71.816,349.974 71.667,349.686 71.667 C 349.512 71.667,349.333 71.518,349.285 71.333 C 349.202 71.016,349.058 71.000,346.250 71.000 C 343.442 71.000,343.298 71.016,343.215 71.333 C 343.149 71.584,342.988 71.667,342.564 71.667 C 342.111 71.667,342.000 71.732,342.000 72.000 C 342.000 72.222,341.889 72.333,341.667 72.333 C 341.451 72.333,341.333 72.444,341.333 72.647 C 341.333 72.821,341.184 73.000,341.000 73.048 C 340.685 73.131,340.667 73.276,340.667 75.750 C 340.667 78.224,340.685 78.369,341.000 78.452 C 341.184 78.500,341.333 78.679,341.333 78.853 C 341.333 79.056,341.451 79.167,341.667 79.167 C 341.852 79.167,342.000 79.278,342.000 79.417 C 342.000 79.591,342.176 79.667,342.583 79.667 C 343.056 79.667,343.167 79.730,343.167 80.000 C 343.167 80.269,343.278 80.333,343.739 80.333 C 344.164 80.333,344.338 80.419,344.417 80.667 C 344.495 80.915,344.669 81.000,345.095 81.000 C 345.556 81.000,345.667 81.065,345.667 81.333 C 345.667 81.556,345.778 81.667,346.000 81.667 C 346.185 81.667,346.333 81.778,346.333 81.917 C 346.333 82.054,346.446 82.167,346.583 82.167 C 346.722 82.167,346.833 82.315,346.833 82.500 C 346.833 82.685,346.722 82.833,346.583 82.833 C 346.444 82.833,346.333 82.981,346.333 83.167 C 346.333 83.389,346.222 83.500,346.000 83.500 C 345.778 83.500,345.667 83.611,345.667 83.833 C 345.667 84.111,345.556 84.167,345.000 84.167 C 344.444 84.167,344.333 84.111,344.333 83.833 C 344.333 83.566,344.222 83.500,343.769 83.500 C 343.346 83.500,343.184 83.417,343.118 83.167 C 343.052 82.911,342.891 82.833,342.432 82.833 C 342.022 82.833,341.833 82.758,341.833 82.593 C 341.833 82.461,341.754 82.304,341.657 82.244 C 341.386 82.077,340.667 82.311,340.667 82.567 C 340.667 82.692,340.517 82.834,340.333 82.882 C 340.078 82.948,340.000 83.109,340.000 83.568 C 340.000 84.226,339.604 84.418,339.452 83.833 C 339.385 83.578,339.224 83.500,338.766 83.500 C 338.278 83.500,338.167 83.562,338.167 83.833 C 338.167 84.152,338.056 84.167,335.667 84.167 L 333.167 84.167 333.167 82.250 L 333.167 80.333 335.667 80.333 C 338.056 80.333,338.167 80.319,338.167 80.000 C 338.167 79.775,338.278 79.667,338.508 79.667 C 338.822 79.667,338.845 79.580,338.799 78.542 L 338.750 77.417 335.958 77.371 L 333.167 77.325 333.167 75.746 L 333.167 74.167 336.333 74.167 C 339.389 74.167,339.500 74.155,339.500 73.833 C 339.500 73.648,339.611 73.500,339.750 73.500 C 340.217 73.500,340.099 71.232,339.625 71.105 C 339.196 70.990,330.235 70.999,329.792 71.115 M133.882 74.500 C 133.930 74.683,134.088 74.833,134.234 74.833 C 134.380 74.833,134.500 74.946,134.500 75.083 C 134.500 75.222,134.648 75.333,134.833 75.333 C 135.056 75.333,135.167 75.444,135.167 75.667 C 135.167 75.889,135.056 76.000,134.833 76.000 C 134.611 76.000,134.500 76.111,134.500 76.333 C 134.500 76.527,134.389 76.667,134.234 76.667 C 134.088 76.667,133.930 76.817,133.882 77.000 C 133.808 77.281,133.654 77.333,132.897 77.333 L 132.000 77.333 132.000 75.750 L 132.000 74.167 132.897 74.167 C 133.654 74.167,133.808 74.219,133.882 74.500 M203.500 74.500 C 203.500 74.770,203.611 74.833,204.083 74.833 L 204.667 74.833 204.667 76.083 C 204.667 76.971,204.606 77.334,204.458 77.336 C 204.204 77.340,203.500 78.059,203.500 78.315 C 203.500 78.430,203.121 78.500,202.500 78.500 L 201.500 78.500 201.500 76.333 L 201.500 74.167 202.500 74.167 C 203.389 74.167,203.500 74.204,203.500 74.500 M251.333 74.399 C 251.333 74.654,251.684 74.833,252.180 74.833 C 252.356 74.833,252.500 74.946,252.500 75.083 C 252.500 75.222,252.648 75.333,252.833 75.333 C 253.056 75.333,253.167 75.444,253.167 75.667 C 253.167 75.852,253.278 76.000,253.417 76.000 C 253.583 76.000,253.667 76.166,253.667 76.494 C 253.667 76.818,253.782 77.050,254.000 77.167 C 254.302 77.328,254.333 77.516,254.333 79.153 C 254.333 80.821,254.307 80.968,254.000 81.048 C 253.761 81.111,253.667 81.276,253.667 81.633 C 253.667 81.922,253.562 82.171,253.417 82.227 C 253.279 82.280,253.167 82.438,253.167 82.578 C 253.167 82.722,253.022 82.833,252.833 82.833 C 252.611 82.833,252.500 82.944,252.500 83.167 C 252.500 83.437,252.389 83.500,251.917 83.500 C 251.444 83.500,251.333 83.563,251.333 83.833 C 251.333 84.143,251.222 84.167,249.750 84.167 L 248.167 84.167 248.167 79.167 L 248.167 74.167 249.750 74.167 C 250.992 74.167,251.333 74.217,251.333 74.399 M283.548 74.500 C 283.596 74.683,283.755 74.833,283.901 74.833 C 284.047 74.833,284.167 74.946,284.167 75.083 C 284.167 75.222,284.315 75.333,284.500 75.333 C 284.722 75.333,284.833 75.444,284.833 75.667 C 284.833 75.852,284.944 76.000,285.083 76.000 C 285.297 76.000,285.333 76.454,285.333 79.083 C 285.333 81.713,285.297 82.167,285.083 82.167 C 284.944 82.167,284.833 82.315,284.833 82.500 C 284.833 82.722,284.722 82.833,284.500 82.833 C 284.278 82.833,284.167 82.944,284.167 83.167 C 284.167 83.389,284.056 83.500,283.833 83.500 C 283.611 83.500,283.500 83.611,283.500 83.833 C 283.500 84.137,283.389 84.167,282.250 84.167 C 281.111 84.167,281.000 84.137,281.000 83.833 C 281.000 83.563,280.889 83.500,280.417 83.500 C 279.876 83.500,279.833 83.463,279.833 82.984 C 279.833 82.609,279.743 82.445,279.500 82.382 C 279.239 82.313,279.167 82.154,279.167 81.647 C 279.167 81.111,279.109 81.000,278.833 81.000 C 278.520 81.000,278.500 80.889,278.500 79.186 C 278.500 77.512,278.526 77.365,278.833 77.285 C 279.086 77.219,279.167 77.058,279.167 76.618 C 279.167 76.179,279.247 76.018,279.500 75.952 C 279.743 75.888,279.833 75.724,279.833 75.349 C 279.833 74.871,279.876 74.833,280.417 74.833 C 280.889 74.833,281.000 74.770,281.000 74.500 C 281.000 74.197,281.111 74.167,282.231 74.167 C 283.321 74.167,283.471 74.205,283.548 74.500 M310.882 74.500 C 310.948 74.755,311.109 74.833,311.568 74.833 C 312.141 74.833,312.167 74.858,312.167 75.417 C 312.167 75.824,312.242 76.000,312.417 76.000 C 312.556 76.000,312.667 76.148,312.667 76.333 C 312.667 76.519,312.556 76.667,312.417 76.667 C 312.242 76.667,312.167 76.843,312.167 77.250 C 312.167 77.722,312.103 77.833,311.833 77.833 C 311.611 77.833,311.500 77.944,311.500 78.167 C 311.500 78.470,311.389 78.500,310.250 78.500 L 309.000 78.500 309.000 76.333 L 309.000 74.167 309.897 74.167 C 310.654 74.167,310.808 74.219,310.882 74.500 M190.093 77.833 C 190.273 77.833,190.333 78.062,190.333 78.738 C 190.333 79.544,190.374 79.651,190.708 79.716 C 190.915 79.755,190.483 79.793,189.750 79.800 C 188.800 79.809,188.524 79.769,188.792 79.661 C 189.111 79.533,189.167 79.386,189.167 78.672 C 189.167 78.038,189.228 77.833,189.417 77.833 C 189.589 77.833,189.675 77.640,189.695 77.208 L 189.723 76.583 189.788 77.208 C 189.830 77.611,189.939 77.833,190.093 77.833 M146.874 78.028 C 146.924 78.554,147.062 78.967,147.228 79.088 C 147.824 79.524,147.556 79.833,146.583 79.833 L 145.667 79.833 145.667 79.186 C 145.667 78.679,145.739 78.520,146.000 78.452 C 146.255 78.385,146.333 78.224,146.333 77.766 C 146.333 76.785,146.775 76.999,146.874 78.028 M220.833 77.833 C 220.833 78.389,220.889 78.500,221.167 78.500 C 221.444 78.500,221.500 78.611,221.500 79.167 L 221.500 79.833 220.500 79.833 C 219.453 79.833,219.016 79.343,219.833 79.083 C 220.105 78.997,220.167 78.831,220.167 78.183 C 220.167 77.349,220.246 77.167,220.611 77.167 C 220.759 77.167,220.833 77.389,220.833 77.833 M133.882 80.667 C 133.948 80.922,134.109 81.000,134.568 81.000 C 134.994 81.000,135.167 81.073,135.167 81.255 C 135.167 81.396,135.279 81.554,135.417 81.606 C 135.571 81.666,135.667 81.919,135.667 82.268 C 135.667 82.659,135.590 82.833,135.417 82.833 C 135.278 82.833,135.167 82.981,135.167 83.167 C 135.167 83.444,135.056 83.500,134.500 83.500 C 133.944 83.500,133.833 83.556,133.833 83.833 C 133.833 84.126,133.722 84.167,132.917 84.167 L 132.000 84.167 132.000 82.250 L 132.000 80.333 132.897 80.333 C 133.654 80.333,133.808 80.385,133.882 80.667 M303.250 87.000 C 303.307 87.092,303.578 87.167,303.853 87.167 C 304.144 87.167,304.310 87.097,304.250 87.000 C 304.193 86.908,303.922 86.833,303.647 86.833 C 303.356 86.833,303.190 86.903,303.250 87.000 M306.105 87.631 C 306.061 87.704,306.210 87.778,306.438 87.797 C 306.676 87.817,306.808 87.761,306.749 87.666 C 306.627 87.468,306.220 87.446,306.105 87.631 M125.000 88.233 C 124.771 88.366,124.452 88.516,124.292 88.566 C 123.924 88.680,123.903 89.427,124.264 89.566 C 124.409 89.621,124.971 89.667,125.514 89.667 C 126.246 89.667,126.500 89.727,126.500 89.899 C 126.500 90.443,128.404 90.523,129.023 90.004 L 129.417 89.675 128.750 89.094 C 128.383 88.774,127.930 88.510,127.742 88.506 C 127.554 88.503,127.329 88.430,127.242 88.344 C 126.942 88.047,125.446 87.974,125.000 88.233 M308.583 88.335 C 308.456 88.539,308.915 88.739,309.161 88.587 C 309.259 88.526,309.296 88.407,309.243 88.322 C 309.116 88.116,308.713 88.124,308.583 88.335 " stroke="none" fill="#fcfcfc" fill-rule="evenodd"></path><path id="path1" d="M37.667 7.417 C 37.667 8.120,37.725 8.333,37.917 8.333 C 38.056 8.333,38.167 8.481,38.167 8.667 C 38.167 8.889,38.278 9.000,38.500 9.000 C 38.770 9.000,38.833 9.111,38.833 9.583 C 38.833 10.056,38.897 10.167,39.167 10.167 C 39.389 10.167,39.500 10.278,39.500 10.500 C 39.500 10.685,39.611 10.833,39.750 10.833 C 39.889 10.833,40.000 10.981,40.000 11.167 C 40.000 11.352,39.889 11.500,39.750 11.500 C 39.558 11.500,39.500 11.713,39.500 12.417 L 39.500 13.333 38.583 13.333 C 37.778 13.333,37.667 13.374,37.667 13.667 C 37.667 13.944,37.556 14.000,37.000 14.000 C 36.444 14.000,36.333 14.056,36.333 14.333 C 36.333 14.603,36.222 14.667,35.750 14.667 C 35.343 14.667,35.167 14.742,35.167 14.917 C 35.167 15.056,35.019 15.167,34.833 15.167 C 34.611 15.167,34.500 15.278,34.500 15.500 C 34.500 15.722,34.389 15.833,34.167 15.833 C 33.944 15.833,33.833 15.944,33.833 16.167 C 33.833 16.389,33.722 16.500,33.500 16.500 C 33.278 16.500,33.167 16.611,33.167 16.833 C 33.167 17.019,33.056 17.167,32.917 17.167 C 32.708 17.167,32.667 17.509,32.667 19.250 C 32.667 20.991,32.708 21.333,32.917 21.333 C 33.097 21.333,33.167 21.519,33.167 22.000 C 33.167 22.481,33.097 22.667,32.917 22.667 C 32.743 22.667,32.667 22.841,32.667 23.239 C 32.667 23.664,32.581 23.838,32.333 23.917 C 32.087 23.995,32.000 24.169,32.000 24.586 C 32.000 24.931,31.896 25.208,31.732 25.300 C 31.567 25.392,31.431 25.763,31.375 26.266 C 31.326 26.716,31.193 27.138,31.079 27.206 C 30.966 27.273,30.820 27.817,30.756 28.414 C 30.674 29.187,30.572 29.500,30.403 29.500 C 30.273 29.500,30.167 29.650,30.167 29.833 C 30.167 30.056,30.056 30.167,29.833 30.167 C 29.648 30.167,29.500 30.278,29.500 30.417 C 29.500 30.554,29.380 30.667,29.234 30.667 C 29.088 30.667,28.930 30.817,28.882 31.000 C 28.834 31.183,28.691 31.333,28.564 31.333 C 28.437 31.333,28.333 31.483,28.333 31.667 C 28.333 31.889,28.222 32.000,28.000 32.000 C 27.730 32.000,27.667 32.111,27.667 32.583 C 27.667 33.056,27.603 33.167,27.333 33.167 C 27.111 33.167,27.000 33.278,27.000 33.500 C 27.000 33.683,26.896 33.833,26.768 33.833 C 26.513 33.833,26.333 34.184,26.333 34.680 C 26.333 34.856,26.221 35.000,26.083 35.000 C 25.944 35.000,25.833 35.148,25.833 35.333 C 25.833 35.556,25.722 35.667,25.500 35.667 C 25.278 35.667,25.167 35.778,25.167 36.000 C 25.167 36.222,25.056 36.333,24.833 36.333 C 24.611 36.333,24.500 36.444,24.500 36.667 C 24.500 36.937,24.389 37.000,23.917 37.000 C 23.531 37.000,23.333 37.078,23.333 37.231 C 23.333 37.357,23.183 37.500,23.000 37.548 C 22.817 37.596,22.667 37.755,22.667 37.901 C 22.667 38.056,22.527 38.167,22.333 38.167 C 22.111 38.167,22.000 38.278,22.000 38.500 C 22.000 38.685,21.889 38.833,21.750 38.833 C 21.611 38.833,21.500 38.981,21.500 39.167 C 21.500 39.389,21.389 39.500,21.167 39.500 C 20.897 39.500,20.833 39.611,20.833 40.083 C 20.833 40.556,20.770 40.667,20.500 40.667 C 20.278 40.667,20.167 40.778,20.167 41.000 C 20.167 41.183,20.062 41.333,19.934 41.333 C 19.680 41.333,19.500 41.684,19.500 42.180 C 19.500 42.356,19.387 42.500,19.250 42.500 C 19.112 42.500,19.000 42.641,19.000 42.814 C 19.000 42.988,18.851 43.167,18.667 43.215 C 18.483 43.263,18.333 43.422,18.333 43.568 C 18.333 43.714,18.250 43.833,18.148 43.833 C 17.892 43.833,17.173 44.538,17.170 44.792 C 17.168 44.906,17.052 45.000,16.911 45.000 C 16.771 45.000,16.609 45.131,16.551 45.292 C 16.387 45.748,15.968 46.083,15.333 46.263 L 14.750 46.428 14.702 47.881 C 14.664 49.035,14.701 49.333,14.886 49.333 C 15.014 49.333,15.188 49.577,15.273 49.875 C 15.401 50.324,15.519 50.426,15.964 50.469 C 16.365 50.508,16.500 50.602,16.500 50.844 C 16.500 51.324,17.909 51.315,18.167 50.833 C 18.265 50.650,18.455 50.500,18.589 50.500 C 18.723 50.500,18.833 50.387,18.833 50.250 C 18.833 50.111,18.981 50.000,19.167 50.000 C 19.444 50.000,19.500 49.889,19.500 49.333 L 19.500 48.667 20.385 48.667 C 20.905 48.667,21.403 48.566,21.593 48.422 C 21.840 48.235,22.456 48.176,24.195 48.172 C 26.606 48.166,27.000 48.105,27.000 47.732 C 27.000 47.562,27.244 47.500,27.917 47.500 C 28.722 47.500,28.833 47.460,28.833 47.167 C 28.833 46.895,28.944 46.833,29.432 46.833 C 29.891 46.833,30.052 46.755,30.118 46.500 C 30.184 46.250,30.346 46.167,30.769 46.167 C 31.160 46.167,31.333 46.090,31.333 45.917 C 31.333 45.778,31.481 45.667,31.667 45.667 C 31.850 45.667,32.144 45.522,32.321 45.346 C 32.832 44.835,33.748 44.822,33.879 45.324 C 33.941 45.562,33.869 45.662,33.607 45.699 C 33.270 45.747,33.249 45.848,33.224 47.490 C 33.204 48.871,33.144 49.271,32.933 49.425 C 32.598 49.671,32.589 50.280,32.917 50.607 C 33.112 50.803,33.167 51.310,33.167 52.929 C 33.167 54.659,33.125 55.000,32.917 55.000 C 32.713 55.000,32.667 55.277,32.667 56.489 C 32.667 57.831,32.634 57.988,32.333 58.083 C 32.021 58.182,32.000 58.336,32.000 60.511 C 32.000 62.611,31.968 62.865,31.667 63.167 C 31.389 63.444,31.333 63.722,31.333 64.833 C 31.333 65.907,31.285 66.167,31.083 66.167 C 30.928 66.167,30.833 66.324,30.833 66.585 C 30.833 66.815,30.683 67.132,30.500 67.289 C 30.293 67.466,30.167 67.780,30.167 68.120 C 30.167 68.476,30.086 68.667,29.934 68.667 C 29.678 68.667,29.500 69.017,29.500 69.521 C 29.500 69.700,29.350 70.008,29.167 70.205 C 28.972 70.414,28.833 70.793,28.833 71.115 C 28.833 71.494,28.755 71.667,28.583 71.667 C 28.403 71.667,28.333 71.852,28.333 72.333 C 28.333 72.889,28.278 73.000,28.000 73.000 C 27.708 73.000,27.667 73.111,27.667 73.897 C 27.667 74.654,27.615 74.808,27.333 74.882 C 27.033 74.960,27.000 75.109,27.000 76.382 C 27.000 77.654,26.967 77.803,26.667 77.882 C 26.483 77.930,26.333 78.088,26.333 78.234 C 26.333 78.380,26.221 78.500,26.083 78.500 C 25.883 78.500,25.833 78.750,25.833 79.750 C 25.833 80.889,25.804 81.000,25.500 81.000 C 25.181 81.000,25.167 81.111,25.167 83.500 C 25.167 85.526,25.123 86.000,24.934 86.000 C 24.680 86.000,24.500 86.350,24.500 86.847 C 24.500 87.023,24.387 87.167,24.250 87.167 C 24.097 87.167,24.000 87.323,24.000 87.570 C 24.000 88.145,23.834 88.500,23.566 88.500 C 23.438 88.500,23.333 88.612,23.333 88.750 C 23.333 88.887,23.183 89.150,23.000 89.333 C 22.817 89.517,22.667 89.820,22.667 90.007 C 22.667 90.194,22.517 90.508,22.333 90.705 C 22.139 90.914,22.000 91.293,22.000 91.615 C 22.000 91.994,21.922 92.167,21.750 92.167 C 21.559 92.167,21.500 92.377,21.500 93.064 C 21.500 93.821,21.448 93.975,21.167 94.048 C 20.891 94.120,20.833 94.276,20.833 94.944 C 20.833 95.573,20.759 95.800,20.500 95.961 C 20.222 96.135,20.167 96.350,20.167 97.251 C 20.167 98.061,20.109 98.333,19.936 98.333 C 19.643 98.333,19.505 98.850,19.502 99.964 C 19.501 100.591,19.428 100.871,19.250 100.940 C 18.892 101.077,18.874 107.000,19.231 107.000 C 19.363 107.000,19.509 107.245,19.569 107.567 C 19.676 108.136,19.919 108.333,20.514 108.333 C 20.689 108.333,20.833 108.446,20.833 108.583 C 20.833 108.756,21.007 108.833,21.397 108.833 C 21.821 108.833,21.983 108.916,22.048 109.167 C 22.114 109.419,22.276 109.500,22.715 109.500 C 23.154 109.500,23.316 109.581,23.382 109.833 C 23.454 110.110,23.609 110.167,24.298 110.167 C 24.988 110.167,25.143 110.223,25.215 110.500 C 25.279 110.744,25.442 110.833,25.823 110.833 C 26.132 110.833,26.383 110.935,26.440 111.083 C 26.581 111.451,29.500 111.451,29.500 111.083 C 29.500 110.946,29.620 110.833,29.766 110.833 C 29.912 110.833,30.069 110.689,30.115 110.512 C 30.162 110.335,30.305 110.149,30.433 110.100 C 30.591 110.040,30.667 109.737,30.667 109.172 C 30.667 108.444,30.711 108.333,31.000 108.333 C 31.270 108.333,31.333 108.222,31.333 107.750 C 31.333 107.389,31.460 107.040,31.667 106.833 C 31.942 106.558,32.000 106.278,32.000 105.221 C 32.000 104.238,32.067 103.869,32.292 103.620 C 32.733 103.133,32.733 97.560,32.292 97.313 C 32.038 97.171,32.000 96.876,32.000 95.032 C 32.000 93.094,31.972 92.896,31.667 92.705 C 31.274 92.460,31.193 91.500,31.566 91.500 C 31.888 91.500,32.000 91.125,32.000 90.041 C 32.000 89.401,32.088 89.012,32.281 88.799 C 32.682 88.356,32.682 86.365,32.281 86.141 C 31.912 85.934,31.865 84.000,32.229 84.000 C 32.874 84.000,32.837 79.950,32.191 79.778 C 31.942 79.712,31.942 79.704,32.188 79.686 C 32.455 79.667,32.667 79.033,32.667 78.250 C 32.667 78.043,32.779 77.781,32.917 77.667 C 33.054 77.553,33.167 77.281,33.167 77.063 C 33.167 76.845,33.317 76.517,33.500 76.333 C 33.683 76.150,33.833 75.859,33.833 75.686 C 33.833 75.512,33.982 75.333,34.167 75.285 C 34.409 75.222,34.500 75.058,34.500 74.682 C 34.500 74.338,34.582 74.167,34.747 74.167 C 34.883 74.167,35.040 73.982,35.097 73.757 C 35.153 73.531,35.305 73.260,35.433 73.153 C 35.562 73.046,35.667 72.827,35.667 72.666 C 35.667 72.504,35.817 72.333,36.000 72.285 C 36.255 72.218,36.333 72.058,36.333 71.599 C 36.333 71.111,36.395 71.000,36.667 71.000 C 36.937 71.000,37.000 70.889,37.000 70.417 C 37.000 70.009,37.075 69.833,37.250 69.833 C 37.387 69.833,37.500 69.701,37.500 69.540 C 37.500 69.379,37.650 69.153,37.833 69.039 C 38.022 68.921,38.167 68.650,38.167 68.415 C 38.167 68.187,38.317 67.850,38.500 67.667 C 38.705 67.462,38.833 67.111,38.833 66.756 C 38.833 66.349,38.932 66.126,39.167 66.000 C 39.381 65.885,39.500 65.651,39.500 65.345 C 39.500 65.076,39.608 64.827,39.750 64.773 C 39.939 64.700,40.000 64.393,40.000 63.505 C 40.000 62.444,40.032 62.333,40.333 62.333 C 40.625 62.333,40.667 62.222,40.667 61.436 C 40.667 60.679,40.719 60.525,41.000 60.452 C 41.269 60.381,41.333 60.224,41.333 59.636 C 41.333 59.114,41.428 58.827,41.667 58.622 C 41.863 58.454,42.000 58.130,42.000 57.835 C 42.000 56.528,42.467 57.354,42.525 58.763 C 42.571 59.887,42.646 60.239,42.875 60.407 C 43.133 60.595,43.167 60.946,43.167 63.417 C 43.167 65.888,43.133 66.238,42.875 66.426 C 42.607 66.622,42.583 67.107,42.583 72.417 C 42.583 77.726,42.607 78.211,42.875 78.407 C 43.267 78.693,43.322 82.833,42.934 82.833 C 42.392 82.833,42.303 84.480,42.837 84.619 C 43.149 84.701,43.153 84.723,42.891 84.915 C 42.695 85.058,42.585 85.438,42.534 86.144 C 42.482 86.867,42.392 87.167,42.230 87.167 C 42.073 87.167,42.000 87.378,42.000 87.833 C 42.000 88.389,41.944 88.500,41.667 88.500 C 41.341 88.500,41.333 88.611,41.333 93.167 C 41.333 97.044,41.294 97.833,41.101 97.833 C 40.698 97.833,40.667 98.244,40.667 103.597 C 40.667 108.722,40.674 108.833,41.000 108.833 C 41.222 108.833,41.333 108.944,41.333 109.167 C 41.333 109.389,41.444 109.500,41.667 109.500 C 41.889 109.500,42.000 109.611,42.000 109.833 C 42.000 110.103,42.111 110.167,42.583 110.167 C 42.969 110.167,43.167 110.245,43.167 110.397 C 43.167 110.658,43.666 110.828,44.441 110.831 C 44.751 110.832,45.003 110.935,45.060 111.083 C 45.130 111.264,45.412 111.333,46.078 111.333 C 46.889 111.333,47.000 111.374,47.000 111.667 C 47.000 111.980,47.111 112.000,48.833 112.000 C 50.556 112.000,50.667 111.980,50.667 111.667 C 50.667 111.481,50.778 111.333,50.917 111.333 C 51.134 111.333,51.167 110.611,51.167 105.833 C 51.167 101.056,51.134 100.333,50.917 100.333 C 50.708 100.333,50.667 99.991,50.667 98.248 C 50.667 96.370,50.634 96.135,50.333 95.878 C 50.050 95.635,50.000 95.386,50.000 94.213 C 50.000 92.944,49.973 92.833,49.667 92.833 C 49.361 92.833,49.333 92.722,49.333 91.512 C 49.333 90.490,49.269 90.126,49.050 89.907 C 48.649 89.506,48.676 83.694,49.080 83.399 C 49.268 83.261,49.333 82.888,49.333 81.941 C 49.333 80.850,49.381 80.640,49.667 80.461 C 49.961 80.277,50.000 80.073,50.000 78.710 C 50.000 77.502,50.050 77.167,50.232 77.167 C 50.614 77.167,50.667 76.767,50.667 73.840 C 50.667 71.555,50.713 71.003,50.917 70.833 C 51.091 70.689,51.167 70.304,51.167 69.563 C 51.167 68.611,51.202 68.500,51.500 68.500 C 51.802 68.500,51.833 68.389,51.833 67.318 C 51.833 66.388,51.904 66.045,52.167 65.712 C 52.461 65.338,52.500 65.036,52.500 63.144 C 52.500 61.397,52.544 61.000,52.738 61.000 C 53.308 61.000,53.359 47.839,52.792 47.212 C 52.384 46.762,52.408 46.167,52.833 46.167 C 53.103 46.167,53.167 46.056,53.167 45.583 C 53.167 45.262,53.238 45.000,53.326 45.000 C 54.052 45.000,54.333 44.185,54.333 42.076 L 54.333 40.000 54.917 40.000 C 55.389 40.000,55.500 39.937,55.500 39.667 C 55.500 39.444,55.611 39.333,55.833 39.333 C 56.019 39.333,56.167 39.222,56.167 39.083 C 56.167 38.917,56.333 38.833,56.665 38.833 C 56.983 38.833,57.239 38.713,57.372 38.500 C 57.487 38.317,57.675 38.167,57.790 38.167 C 57.906 38.167,58.000 38.017,58.000 37.833 C 58.000 37.369,58.760 37.369,58.882 37.833 C 59.015 38.344,62.255 38.344,62.417 37.833 C 62.475 37.650,62.630 37.500,62.761 37.500 C 62.893 37.500,63.000 37.350,63.000 37.167 C 63.000 36.944,63.111 36.833,63.333 36.833 C 63.596 36.833,63.667 36.722,63.667 36.310 C 63.667 36.004,63.788 35.698,63.958 35.574 C 64.224 35.380,64.254 34.876,64.298 29.930 C 64.339 25.301,64.382 24.500,64.590 24.500 C 64.724 24.500,64.833 24.350,64.833 24.167 C 64.833 23.861,64.944 23.833,66.155 23.833 C 67.107 23.833,67.546 23.764,67.726 23.583 C 67.893 23.417,68.309 23.333,68.974 23.333 C 70.563 23.333,70.500 23.427,70.500 21.066 L 70.500 19.000 67.750 19.000 C 65.417 19.000,65.000 19.038,65.000 19.250 C 65.000 19.431,64.815 19.500,64.333 19.500 C 63.852 19.500,63.667 19.431,63.667 19.250 C 63.667 18.944,60.430 18.875,60.244 19.177 C 60.183 19.274,59.954 19.422,59.734 19.506 C 59.385 19.639,59.333 19.765,59.333 20.488 C 59.333 21.305,59.324 21.320,58.750 21.428 C 58.416 21.490,58.167 21.636,58.167 21.769 C 58.167 21.923,57.968 22.000,57.568 22.000 C 57.109 22.000,56.948 22.078,56.882 22.333 C 56.816 22.584,56.654 22.667,56.231 22.667 C 55.778 22.667,55.667 22.732,55.667 23.000 C 55.667 23.304,55.556 23.333,54.417 23.333 C 53.481 23.333,53.167 23.277,53.167 23.109 C 53.167 22.986,53.017 22.749,52.833 22.583 C 52.567 22.342,52.500 22.070,52.500 21.224 C 52.500 20.278,52.465 20.167,52.167 20.167 C 51.944 20.167,51.833 20.056,51.833 19.833 C 51.833 19.611,51.722 19.500,51.500 19.500 C 51.315 19.500,51.167 19.389,51.167 19.250 C 51.167 19.075,50.991 19.000,50.583 19.000 L 50.000 19.000 50.000 18.000 C 50.000 17.111,50.037 17.000,50.333 17.000 C 50.549 17.000,50.667 16.889,50.667 16.684 C 50.667 16.511,50.779 16.326,50.917 16.273 C 51.215 16.159,51.290 13.500,50.996 13.500 C 50.902 13.500,50.754 13.313,50.667 13.083 C 50.580 12.854,50.394 12.667,50.254 12.667 C 50.078 12.667,50.000 12.499,50.000 12.123 C 50.000 11.761,49.889 11.511,49.667 11.372 C 49.483 11.258,49.332 10.996,49.330 10.790 C 49.328 10.407,48.682 9.667,48.352 9.667 C 48.250 9.667,48.167 9.517,48.167 9.333 C 48.167 9.056,48.056 9.000,47.500 9.000 C 47.041 9.000,46.833 8.928,46.833 8.768 C 46.833 8.200,43.365 8.095,43.217 8.659 C 42.995 9.506,40.667 8.973,40.667 8.075 C 40.667 7.942,40.517 7.833,40.333 7.833 C 40.111 7.833,40.000 7.722,40.000 7.500 C 40.000 7.315,39.889 7.167,39.750 7.167 C 39.611 7.167,39.500 7.019,39.500 6.833 C 39.500 6.540,39.389 6.500,38.583 6.500 L 37.667 6.500 37.667 7.417 M38.215 16.167 C 38.167 16.350,38.024 16.500,37.897 16.500 C 37.770 16.500,37.667 16.612,37.667 16.750 C 37.667 16.889,37.519 17.000,37.333 17.000 C 37.111 17.000,37.000 17.111,37.000 17.333 C 37.000 17.556,36.889 17.667,36.667 17.667 C 36.444 17.667,36.333 17.778,36.333 18.000 C 36.333 18.222,36.222 18.333,36.000 18.333 C 35.778 18.333,35.667 18.444,35.667 18.667 C 35.667 18.852,35.556 19.000,35.417 19.000 C 35.279 19.000,35.167 19.104,35.167 19.231 C 35.167 19.357,35.017 19.500,34.833 19.548 C 34.542 19.624,34.500 19.553,34.500 18.984 C 34.500 18.517,34.570 18.333,34.750 18.333 C 34.887 18.333,35.000 18.221,35.000 18.085 C 35.000 17.948,35.150 17.742,35.333 17.628 C 35.517 17.513,35.667 17.325,35.667 17.210 C 35.667 17.094,35.817 17.000,36.000 17.000 C 36.183 17.000,36.333 16.896,36.333 16.769 C 36.333 16.643,36.483 16.500,36.667 16.452 C 36.850 16.404,37.000 16.245,37.000 16.099 C 37.000 15.901,37.166 15.833,37.651 15.833 C 38.220 15.833,38.291 15.875,38.215 16.167 M40.122 18.912 C 40.290 19.461,40.287 19.465,39.664 19.564 C 38.937 19.681,38.833 19.870,38.833 21.078 C 38.833 21.957,38.830 21.964,38.250 22.072 C 37.901 22.138,37.667 22.279,37.667 22.424 C 37.667 22.609,37.431 22.667,36.667 22.667 L 35.667 22.667 35.667 22.000 C 35.667 21.444,35.722 21.333,36.000 21.333 C 36.185 21.333,36.333 21.222,36.333 21.083 C 36.333 20.946,36.453 20.833,36.599 20.833 C 36.745 20.833,36.904 20.683,36.952 20.500 C 37.000 20.317,37.143 20.167,37.269 20.167 C 37.396 20.167,37.500 20.017,37.500 19.833 C 37.500 19.611,37.611 19.500,37.833 19.500 C 38.027 19.500,38.167 19.389,38.167 19.234 C 38.167 19.088,38.317 18.930,38.500 18.882 C 38.683 18.834,38.833 18.696,38.833 18.576 C 38.833 18.337,39.262 18.196,39.684 18.296 C 39.832 18.331,40.028 18.608,40.122 18.912 M60.000 23.583 C 60.000 23.721,60.131 23.836,60.292 23.838 C 60.563 23.843,60.562 23.856,60.281 24.019 C 60.035 24.162,59.983 24.390,60.002 25.223 C 60.046 27.071,60.069 27.000,59.401 27.000 C 58.942 27.000,58.782 27.078,58.715 27.333 C 58.641 27.615,58.488 27.667,57.731 27.667 L 56.833 27.667 56.833 27.068 C 56.833 26.609,56.755 26.448,56.500 26.382 C 56.295 26.328,56.167 26.154,56.167 25.931 C 56.167 25.730,56.077 25.477,55.967 25.367 C 55.811 25.211,55.870 25.167,56.232 25.167 C 56.558 25.167,56.724 25.066,56.785 24.833 C 56.848 24.594,57.012 24.500,57.368 24.500 C 57.724 24.500,57.889 24.406,57.952 24.167 C 58.017 23.915,58.179 23.833,58.608 23.833 C 58.960 23.833,59.214 23.738,59.273 23.583 C 59.326 23.446,59.511 23.333,59.684 23.333 C 59.858 23.333,60.000 23.446,60.000 23.583 M59.987 30.125 C 59.980 30.835,59.931 31.304,59.879 31.167 C 59.827 31.029,59.683 30.857,59.559 30.783 C 59.435 30.710,59.333 30.541,59.333 30.408 C 59.333 30.275,59.183 30.167,59.000 30.167 C 58.778 30.167,58.667 30.056,58.667 29.833 C 58.667 29.572,58.778 29.500,59.182 29.500 C 59.558 29.500,59.722 29.409,59.785 29.167 C 59.945 28.557,60.000 28.821,59.987 30.125 M36.180 33.167 C 36.530 33.167,36.356 35.622,36.000 35.715 C 35.747 35.781,35.667 35.942,35.667 36.383 C 35.667 36.746,35.573 37.000,35.417 37.060 C 35.216 37.137,35.167 37.505,35.167 38.911 C 35.167 40.556,35.146 40.667,34.833 40.667 C 34.611 40.667,34.500 40.778,34.500 41.000 C 34.500 41.278,34.389 41.333,33.833 41.333 L 33.167 41.333 33.167 40.667 C 33.167 40.185,33.097 40.000,32.917 40.000 C 32.737 40.000,32.667 39.816,32.667 39.347 C 32.667 38.533,32.532 38.167,32.232 38.167 C 32.050 38.167,32.000 37.826,32.000 36.583 C 32.000 35.131,32.027 35.000,32.321 35.000 C 32.498 35.000,32.745 34.897,32.871 34.772 C 32.996 34.647,33.264 34.492,33.466 34.427 C 33.668 34.363,33.833 34.203,33.833 34.072 C 33.833 33.941,33.983 33.833,34.167 33.833 C 34.385 33.833,34.500 33.722,34.500 33.511 C 34.500 33.193,35.234 32.968,35.805 33.111 C 35.927 33.142,36.096 33.167,36.180 33.167 M55.000 35.333 C 55.000 35.603,55.111 35.667,55.583 35.667 C 56.153 35.667,56.167 35.683,56.167 36.333 C 56.167 36.924,56.122 37.000,55.770 37.000 C 55.552 37.000,55.288 37.104,55.182 37.232 C 54.580 37.957,54.333 37.691,54.333 36.318 C 54.333 35.111,54.361 35.000,54.667 35.000 C 54.889 35.000,55.000 35.111,55.000 35.333 M30.167 38.750 C 30.167 39.144,30.244 39.333,30.405 39.333 C 30.568 39.333,30.679 39.620,30.757 40.250 C 30.834 40.865,30.948 41.167,31.103 41.167 C 31.236 41.167,31.333 41.337,31.333 41.570 C 31.333 42.145,31.499 42.500,31.768 42.500 C 31.896 42.500,32.000 42.650,32.000 42.833 C 32.000 43.103,31.889 43.167,31.417 43.167 C 30.944 43.167,30.833 43.230,30.833 43.500 C 30.833 43.722,30.722 43.833,30.500 43.833 C 30.315 43.833,30.167 43.944,30.167 44.083 C 30.167 44.257,29.992 44.333,29.595 44.333 C 29.169 44.333,28.995 44.419,28.917 44.667 C 28.838 44.915,28.664 45.000,28.239 45.000 C 27.778 45.000,27.667 45.065,27.667 45.333 C 27.667 45.622,27.556 45.667,26.828 45.667 C 26.236 45.667,25.961 45.740,25.894 45.917 C 25.816 46.120,25.423 46.167,23.810 46.167 C 21.873 46.167,21.826 46.158,22.000 45.833 C 22.098 45.650,22.288 45.500,22.423 45.500 C 22.557 45.500,22.667 45.387,22.667 45.250 C 22.667 45.112,22.786 45.000,22.932 45.000 C 23.078 45.000,23.237 44.850,23.285 44.667 C 23.333 44.483,23.476 44.333,23.603 44.333 C 23.730 44.333,23.833 44.183,23.833 44.000 C 23.833 43.778,23.944 43.667,24.167 43.667 C 24.352 43.667,24.500 43.556,24.500 43.417 C 24.500 43.278,24.648 43.167,24.833 43.167 C 25.056 43.167,25.167 43.056,25.167 42.833 C 25.167 42.611,25.278 42.500,25.500 42.500 C 25.722 42.500,25.833 42.389,25.833 42.167 C 25.833 41.981,25.944 41.833,26.083 41.833 C 26.221 41.833,26.333 41.721,26.333 41.583 C 26.333 41.444,26.481 41.333,26.667 41.333 C 26.889 41.333,27.000 41.222,27.000 41.000 C 27.000 40.778,27.111 40.667,27.333 40.667 C 27.556 40.667,27.667 40.556,27.667 40.333 C 27.667 40.139,27.778 40.000,27.932 40.000 C 28.078 40.000,28.237 39.850,28.285 39.667 C 28.333 39.483,28.476 39.333,28.603 39.333 C 28.730 39.333,28.833 39.221,28.833 39.083 C 28.833 38.944,28.981 38.833,29.167 38.833 C 29.389 38.833,29.500 38.722,29.500 38.500 C 29.500 38.278,29.611 38.167,29.833 38.167 C 30.103 38.167,30.167 38.278,30.167 38.750 M312.875 43.782 C 313.035 43.823,313.298 43.823,313.458 43.782 C 313.619 43.740,313.487 43.705,313.167 43.705 C 312.846 43.705,312.715 43.740,312.875 43.782 " stroke="none" fill="#040404" fill-rule="evenodd"></path><path id="path2" d="M304.000 37.250 C 304.000 37.425,303.824 37.500,303.417 37.500 C 302.944 37.500,302.833 37.563,302.833 37.833 C 302.833 38.105,302.722 38.167,302.234 38.167 C 301.776 38.167,301.615 38.245,301.548 38.500 C 301.500 38.683,301.357 38.833,301.231 38.833 C 301.104 38.833,301.000 38.937,301.000 39.064 C 301.000 39.191,300.850 39.334,300.667 39.382 C 300.483 39.430,300.333 39.588,300.333 39.734 C 300.333 39.889,300.194 40.000,300.000 40.000 C 299.778 40.000,299.667 40.111,299.667 40.333 C 299.667 40.517,299.562 40.667,299.434 40.667 C 299.183 40.667,299.000 41.016,299.000 41.496 C 299.000 41.662,298.887 41.841,298.750 41.894 C 298.539 41.974,298.500 42.514,298.500 45.328 C 298.500 48.185,298.536 48.667,298.750 48.667 C 298.903 48.667,299.000 48.823,299.000 49.070 C 299.000 49.645,299.166 50.000,299.434 50.000 C 299.562 50.000,299.667 50.112,299.667 50.250 C 299.667 50.389,299.815 50.500,300.000 50.500 C 300.222 50.500,300.333 50.611,300.333 50.833 C 300.333 51.056,300.444 51.167,300.667 51.167 C 300.889 51.167,301.000 51.278,301.000 51.500 C 301.000 51.688,301.111 51.833,301.255 51.833 C 301.396 51.833,301.553 51.944,301.605 52.079 C 301.656 52.214,301.954 52.372,302.266 52.431 C 302.588 52.491,302.833 52.637,302.833 52.769 C 302.833 52.922,303.030 53.000,303.417 53.000 C 303.889 53.000,304.000 53.063,304.000 53.333 C 304.000 53.611,304.111 53.667,304.667 53.667 C 305.222 53.667,305.333 53.722,305.333 54.000 C 305.333 54.270,305.444 54.333,305.917 54.333 C 306.322 54.333,306.500 54.409,306.500 54.581 C 306.500 54.742,306.735 54.867,307.167 54.936 C 307.534 54.995,307.833 55.137,307.833 55.252 C 307.833 55.367,307.983 55.500,308.167 55.548 C 308.350 55.596,308.500 55.755,308.500 55.901 C 308.500 56.093,308.661 56.167,309.083 56.167 C 309.544 56.167,309.667 56.233,309.667 56.481 C 309.667 56.654,309.816 56.833,310.000 56.882 C 310.294 56.958,310.333 57.109,310.333 58.151 C 310.333 59.222,310.302 59.333,310.000 59.333 C 309.730 59.333,309.667 59.444,309.667 59.917 C 309.667 60.475,309.641 60.500,309.068 60.500 C 308.609 60.500,308.448 60.578,308.382 60.833 C 308.309 61.110,308.154 61.167,307.465 61.167 C 306.776 61.167,306.621 61.223,306.548 61.500 C 306.500 61.684,306.321 61.833,306.147 61.833 C 305.944 61.833,305.833 61.715,305.833 61.500 C 305.833 61.196,305.722 61.167,304.583 61.167 C 303.444 61.167,303.333 61.137,303.333 60.833 C 303.333 60.566,303.222 60.500,302.769 60.500 C 302.346 60.500,302.184 60.417,302.118 60.167 C 302.070 59.983,301.912 59.833,301.766 59.833 C 301.620 59.833,301.500 59.721,301.500 59.583 C 301.500 59.444,301.352 59.333,301.167 59.333 C 300.954 59.333,300.833 59.222,300.833 59.025 C 300.833 58.758,300.678 58.713,299.667 58.683 C 298.590 58.652,298.500 58.675,298.500 58.991 C 298.500 59.222,298.392 59.333,298.167 59.333 C 297.859 59.333,297.833 59.444,297.833 60.793 C 297.833 62.073,297.792 62.279,297.500 62.461 C 297.247 62.619,297.167 62.850,297.167 63.418 C 297.167 64.056,297.216 64.167,297.500 64.167 C 297.722 64.167,297.833 64.278,297.833 64.500 C 297.833 64.715,297.944 64.833,298.147 64.833 C 298.321 64.833,298.500 64.982,298.548 65.167 C 298.621 65.445,298.776 65.500,299.484 65.500 C 300.096 65.500,300.333 65.564,300.333 65.731 C 300.333 66.024,300.850 66.162,301.958 66.164 C 302.624 66.166,302.833 66.226,302.833 66.417 C 302.833 66.630,303.278 66.667,305.839 66.667 C 308.356 66.667,308.859 66.626,308.940 66.417 C 309.002 66.255,309.260 66.167,309.671 66.167 C 310.468 66.167,310.833 66.030,310.833 65.732 C 310.833 65.577,311.031 65.500,311.432 65.500 C 311.891 65.500,312.052 65.422,312.118 65.167 C 312.181 64.928,312.346 64.833,312.702 64.833 C 313.055 64.833,313.223 64.739,313.284 64.506 C 313.331 64.325,313.492 64.138,313.643 64.089 C 313.983 63.979,314.667 62.994,314.667 62.615 C 314.667 62.460,314.779 62.333,314.917 62.333 C 315.056 62.333,315.167 62.185,315.167 62.000 C 315.167 61.778,315.278 61.667,315.500 61.667 C 315.802 61.667,315.833 61.556,315.833 60.484 C 315.833 59.442,315.873 59.292,316.167 59.215 C 316.467 59.136,316.500 58.988,316.500 57.715 C 316.500 56.442,316.467 56.293,316.167 56.215 C 315.885 56.141,315.833 55.988,315.833 55.231 C 315.833 54.444,315.792 54.333,315.500 54.333 C 315.236 54.333,315.166 54.221,315.164 53.792 C 315.161 53.255,314.589 52.500,314.185 52.500 C 314.083 52.500,314.000 52.350,314.000 52.167 C 314.000 51.944,313.889 51.833,313.667 51.833 C 313.444 51.833,313.333 51.722,313.333 51.500 C 313.333 51.278,313.222 51.167,313.000 51.167 C 312.815 51.167,312.667 51.056,312.667 50.917 C 312.667 50.779,312.523 50.667,312.347 50.667 C 311.850 50.667,311.500 50.487,311.500 50.232 C 311.500 50.072,311.292 50.000,310.833 50.000 C 310.278 50.000,310.167 49.944,310.167 49.667 C 310.167 49.399,310.056 49.333,309.603 49.333 C 309.179 49.333,309.017 49.250,308.952 49.000 C 308.889 48.761,308.724 48.667,308.367 48.667 C 308.078 48.667,307.829 48.562,307.773 48.417 C 307.713 48.260,307.458 48.167,307.089 48.167 C 306.611 48.167,306.500 48.104,306.500 47.833 C 306.500 47.615,306.389 47.500,306.178 47.500 C 306.001 47.500,305.808 47.350,305.750 47.167 C 305.676 46.933,305.498 46.833,305.155 46.833 C 304.819 46.833,304.667 46.750,304.667 46.568 C 304.667 46.422,304.517 46.263,304.333 46.215 C 304.038 46.138,304.000 45.988,304.000 44.897 C 304.000 43.778,304.030 43.667,304.333 43.667 C 304.519 43.667,304.667 43.556,304.667 43.417 C 304.667 43.279,304.786 43.167,304.932 43.167 C 305.078 43.167,305.237 43.017,305.285 42.833 C 305.348 42.594,305.512 42.500,305.868 42.500 C 306.224 42.500,306.389 42.406,306.452 42.167 C 306.531 41.863,306.679 41.833,308.103 41.833 C 309.556 41.833,309.667 41.857,309.667 42.167 C 309.667 42.434,309.778 42.500,310.231 42.500 C 310.654 42.500,310.816 42.583,310.882 42.833 C 310.948 43.089,311.109 43.167,311.568 43.167 C 311.997 43.167,312.167 43.240,312.167 43.424 C 312.167 43.637,312.376 43.673,313.375 43.632 L 314.583 43.583 314.636 43.042 C 314.668 42.706,314.779 42.500,314.927 42.500 C 315.361 42.500,315.270 38.233,314.833 38.118 C 314.650 38.070,314.500 37.912,314.500 37.766 C 314.500 37.555,314.311 37.500,313.583 37.500 C 312.880 37.500,312.667 37.442,312.667 37.250 C 312.667 37.034,312.074 37.000,308.333 37.000 C 304.593 37.000,304.000 37.034,304.000 37.250 M320.878 51.542 L 320.917 66.083 329.500 66.083 L 338.083 66.083 338.132 64.884 C 338.174 63.864,338.230 63.669,338.507 63.581 C 338.990 63.428,338.984 62.008,338.500 61.882 C 338.316 61.833,338.167 61.654,338.167 61.481 C 338.167 61.179,337.933 61.167,332.250 61.167 L 326.333 61.167 326.333 57.417 L 326.333 53.667 331.000 53.667 L 335.667 53.667 335.667 53.103 C 335.667 52.679,335.750 52.517,336.000 52.452 C 336.303 52.373,336.333 52.224,336.333 50.849 C 336.333 49.444,336.309 49.333,336.000 49.333 C 335.778 49.333,335.667 49.222,335.667 49.000 C 335.667 48.675,335.556 48.667,331.000 48.667 L 326.333 48.667 326.333 45.603 C 326.333 42.679,326.349 42.535,326.667 42.452 C 326.850 42.404,327.000 42.245,327.000 42.099 C 327.000 41.865,327.402 41.833,330.417 41.833 C 333.722 41.833,333.833 41.844,333.833 42.167 C 333.833 42.483,333.944 42.500,336.000 42.500 L 338.167 42.500 338.167 40.707 C 338.167 39.094,338.200 38.893,338.500 38.705 C 338.683 38.591,338.833 38.350,338.833 38.171 C 338.833 37.992,338.683 37.765,338.500 37.667 C 338.317 37.569,338.167 37.378,338.167 37.244 C 338.167 37.033,337.000 37.000,329.503 37.000 L 320.839 37.000 320.878 51.542 M348.833 37.564 C 348.833 37.988,348.750 38.149,348.500 38.215 C 348.223 38.287,348.167 38.442,348.167 39.132 C 348.167 39.821,348.110 39.976,347.833 40.048 C 347.556 40.121,347.500 40.276,347.500 40.965 C 347.500 41.654,347.444 41.809,347.167 41.882 C 346.911 41.948,346.833 42.109,346.833 42.568 C 346.833 42.989,346.759 43.167,346.583 43.167 C 346.391 43.167,346.333 43.380,346.333 44.083 C 346.333 44.889,346.293 45.000,346.000 45.000 C 345.708 45.000,345.667 45.111,345.667 45.897 C 345.667 46.654,345.615 46.808,345.333 46.882 C 345.055 46.954,345.000 47.109,345.000 47.818 C 345.000 48.458,344.939 48.667,344.752 48.667 C 344.591 48.667,344.466 48.902,344.397 49.333 C 344.333 49.735,344.200 50.000,344.062 50.000 C 343.896 50.000,343.833 50.251,343.833 50.917 C 343.833 51.722,343.793 51.833,343.500 51.833 C 343.208 51.833,343.167 51.944,343.167 52.731 C 343.167 53.488,343.115 53.641,342.833 53.715 C 342.555 53.788,342.500 53.942,342.500 54.651 C 342.500 55.295,342.440 55.500,342.250 55.500 C 342.069 55.500,342.000 55.685,342.000 56.167 C 342.000 56.625,341.928 56.833,341.768 56.833 C 341.468 56.833,341.333 57.199,341.333 58.014 C 341.333 58.556,341.277 58.667,341.000 58.667 C 340.708 58.667,340.667 58.778,340.667 59.564 C 340.667 60.321,340.615 60.475,340.333 60.548 C 340.078 60.615,340.000 60.776,340.000 61.234 C 340.000 61.656,339.926 61.833,339.750 61.833 C 339.558 61.833,339.500 62.046,339.500 62.750 C 339.500 63.563,339.461 63.667,339.158 63.667 C 338.512 63.667,338.721 65.936,339.379 66.067 C 340.714 66.335,344.333 66.178,344.333 65.853 C 344.333 65.679,344.482 65.500,344.667 65.452 C 344.960 65.375,345.000 65.224,345.000 64.194 C 345.000 63.169,345.042 63.009,345.333 62.917 C 345.606 62.830,345.667 62.664,345.667 62.008 C 345.667 61.346,345.725 61.190,346.000 61.118 C 346.278 61.046,346.333 60.891,346.333 60.182 L 346.333 59.333 347.236 59.333 C 348.293 59.333,348.667 59.220,348.667 58.899 C 348.667 58.469,354.269 58.568,354.382 59.000 C 354.454 59.279,354.609 59.333,355.323 59.333 C 355.928 59.333,356.205 59.406,356.273 59.583 C 356.326 59.721,356.473 59.833,356.601 59.833 C 356.769 59.833,356.833 60.068,356.833 60.682 C 356.833 61.391,356.888 61.546,357.167 61.618 C 357.448 61.692,357.500 61.846,357.500 62.608 C 357.500 63.256,357.570 63.537,357.750 63.606 C 357.931 63.676,358.001 63.962,358.003 64.643 C 358.007 66.107,357.945 66.076,360.921 66.137 C 364.002 66.200,364.333 66.091,364.333 65.007 C 364.333 64.502,364.258 64.332,364.000 64.250 C 363.721 64.161,363.667 63.998,363.667 63.239 C 363.667 62.444,363.626 62.333,363.333 62.333 C 363.040 62.333,363.000 62.222,363.000 61.417 C 363.000 60.713,362.942 60.500,362.750 60.500 C 362.598 60.500,362.500 60.345,362.500 60.104 C 362.500 59.353,362.291 58.667,362.063 58.667 C 361.896 58.667,361.833 58.417,361.833 57.750 C 361.833 56.944,361.793 56.833,361.500 56.833 C 361.207 56.833,361.167 56.722,361.167 55.917 C 361.167 55.111,361.126 55.000,360.833 55.000 C 360.537 55.000,360.500 54.889,360.500 54.000 C 360.500 53.222,360.444 53.000,360.250 53.000 C 360.060 53.000,360.000 52.795,360.000 52.151 C 360.000 51.442,359.945 51.288,359.667 51.215 C 359.385 51.141,359.333 50.988,359.333 50.231 C 359.333 49.444,359.292 49.333,359.000 49.333 C 358.707 49.333,358.667 49.222,358.667 48.417 C 358.667 47.611,358.626 47.500,358.333 47.500 C 358.040 47.500,358.000 47.389,358.000 46.583 C 358.000 45.880,357.942 45.667,357.750 45.667 C 357.558 45.667,357.500 45.454,357.500 44.750 C 357.500 43.944,357.460 43.833,357.167 43.833 C 356.873 43.833,356.833 43.722,356.833 42.901 C 356.833 42.109,356.783 41.956,356.500 41.882 C 356.219 41.808,356.167 41.654,356.167 40.897 C 356.167 40.211,356.108 40.000,355.917 40.000 C 355.737 40.000,355.667 39.816,355.667 39.347 C 355.667 38.533,355.532 38.167,355.232 38.167 C 355.078 38.167,355.000 37.971,355.000 37.583 L 355.000 37.000 351.917 37.000 L 348.833 37.000 348.833 37.564 M352.500 47.099 C 352.500 47.891,352.550 48.044,352.833 48.118 C 353.115 48.192,353.167 48.346,353.167 49.103 C 353.167 49.789,353.225 50.000,353.417 50.000 C 353.606 50.000,353.667 50.205,353.667 50.849 C 353.667 51.558,353.722 51.712,354.000 51.785 C 354.281 51.859,354.333 52.012,354.333 52.769 L 354.333 53.667 351.583 53.667 C 348.944 53.667,348.833 53.653,348.833 53.333 C 348.833 53.148,348.944 53.000,349.083 53.000 C 349.275 53.000,349.333 52.787,349.333 52.083 C 349.333 51.278,349.374 51.167,349.667 51.167 C 349.959 51.167,350.000 51.056,350.000 50.269 C 350.000 49.512,350.052 49.359,350.333 49.285 C 350.612 49.212,350.667 49.058,350.667 48.349 C 350.667 47.705,350.727 47.500,350.917 47.500 C 351.097 47.500,351.167 47.315,351.167 46.833 L 351.167 46.167 351.833 46.167 L 352.500 46.167 352.500 47.099 " stroke="none" fill="#54cccc" fill-rule="evenodd"></path><path id="path3" d="M301.667 86.840 C 301.667 86.935,301.511 87.225,301.320 87.482 C 301.106 87.772,300.994 88.136,301.028 88.434 L 301.083 88.917 304.667 88.964 C 308.474 89.014,309.324 88.945,308.762 88.630 C 308.466 88.465,308.464 88.438,308.728 88.246 C 309.067 87.997,308.534 87.866,306.961 87.810 C 306.237 87.785,306.047 87.728,306.173 87.575 C 306.367 87.342,305.902 87.173,305.062 87.169 C 304.775 87.168,304.447 87.054,304.333 86.917 C 304.087 86.620,301.667 86.550,301.667 86.840 M304.250 87.000 C 304.310 87.097,304.144 87.167,303.853 87.167 C 303.578 87.167,303.307 87.092,303.250 87.000 C 303.190 86.903,303.356 86.833,303.647 86.833 C 303.922 86.833,304.193 86.908,304.250 87.000 " stroke="none" fill="#dc8404" fill-rule="evenodd"></path><path id="path4" d="" stroke="none" fill="#bcc4100" fill-rule="evenodd"></path></g></svg>